  0
SECTION
  2
BLOCKS
  0
ENDSEC
  0
SECTION
  2
ENTITIES
  0
LINE
  8
0
 10
-42
 11
-42
 20
-5
 21
23
  0
LINE
  8
0
 10
-42
 11
-32
 20
23
 21
23
  0
LINE
  8
0
 10
-32
 11
-32
 20
23
 21
26.5
  0
LINE
  8
0
 10
-32
 11
-12
 20
26.5
 21
26.5
  0
LINE
  8
0
 10
-12
 11
-12
 20
26.5
 21
23
  0
LINE
  8
0
 10
-12
 11
-2
 20
23
 21
23
  0
LINE
  8
0
 10
-2
 11
-2
 20
23
 21
-5
  0
LINE
  8
0
 10
-2
 11
-12
 20
-5
 21
-5
  0
LINE
  8
0
 10
-12
 11
-12
 20
-5
 21
-8.5
  0
LINE
  8
0
 10
-12
 11
-32
 20
-8.5
 21
-8.5
  0
LINE
  8
0
 10
-32
 11
-32
 20
-8.5
 21
-5
  0
LINE
  8
0
 10
-32
 11
-42
 20
-5
 21
-5
  0
LINE
  8
0
 10
-39.5
 11
-39.493
 20
0.5
 21
0.647
  0
LINE
  8
0
 10
-39.493
 11
-39.471
 20
0.647
 21
0.793
  0
LINE
  8
0
 10
-39.471
 11
-39.435
 20
0.793
 21
0.935
  0
LINE
  8
0
 10
-39.435
 11
-39.386
 20
0.935
 21
1.074
  0
LINE
  8
0
 10
-39.386
 11
-39.323
 20
1.074
 21
1.207
  0
LINE
  8
0
 10
-39.323
 11
-39.247
 20
1.207
 21
1.333
  0
LINE
  8
0
 10
-39.247
 11
-39.16
 20
1.333
 21
1.452
  0
LINE
  8
0
 10
-39.16
 11
-39.061
 20
1.452
 21
1.561
  0
LINE
  8
0
 10
-39.061
 11
-38.952
 20
1.561
 21
1.66
  0
LINE
  8
0
 10
-38.952
 11
-38.833
 20
1.66
 21
1.747
  0
LINE
  8
0
 10
-38.833
 11
-38.707
 20
1.747
 21
1.823
  0
LINE
  8
0
 10
-38.707
 11
-38.574
 20
1.823
 21
1.886
  0
LINE
  8
0
 10
-38.574
 11
-38.435
 20
1.886
 21
1.935
  0
LINE
  8
0
 10
-38.435
 11
-38.293
 20
1.935
 21
1.971
  0
LINE
  8
0
 10
-38.293
 11
-38.147
 20
1.971
 21
1.993
  0
LINE
  8
0
 10
-38.147
 11
-38
 20
1.993
 21
2
  0
LINE
  8
0
 10
-38
 11
-6
 20
2
 21
2
  0
LINE
  8
0
 10
-6
 11
-5.853
 20
2
 21
1.993
  0
LINE
  8
0
 10
-5.853
 11
-5.707
 20
1.993
 21
1.971
  0
LINE
  8
0
 10
-5.707
 11
-5.565
 20
1.971
 21
1.935
  0
LINE
  8
0
 10
-5.565
 11
-5.426
 20
1.935
 21
1.886
  0
LINE
  8
0
 10
-5.426
 11
-5.293
 20
1.886
 21
1.823
  0
LINE
  8
0
 10
-5.293
 11
-5.167
 20
1.823
 21
1.747
  0
LINE
  8
0
 10
-5.167
 11
-5.048
 20
1.747
 21
1.66
  0
LINE
  8
0
 10
-5.048
 11
-4.939
 20
1.66
 21
1.561
  0
LINE
  8
0
 10
-4.939
 11
-4.84
 20
1.561
 21
1.452
  0
LINE
  8
0
 10
-4.84
 11
-4.753
 20
1.452
 21
1.333
  0
LINE
  8
0
 10
-4.753
 11
-4.677
 20
1.333
 21
1.207
  0
LINE
  8
0
 10
-4.677
 11
-4.614
 20
1.207
 21
1.074
  0
LINE
  8
0
 10
-4.614
 11
-4.565
 20
1.074
 21
0.935
  0
LINE
  8
0
 10
-4.565
 11
-4.529
 20
0.935
 21
0.793
  0
LINE
  8
0
 10
-4.529
 11
-4.507
 20
0.793
 21
0.647
  0
LINE
  8
0
 10
-4.507
 11
-4.5
 20
0.647
 21
0.5
  0
LINE
  8
0
 10
-4.5
 11
-4.507
 20
0.5
 21
0.353
  0
LINE
  8
0
 10
-4.507
 11
-4.529
 20
0.353
 21
0.207
  0
LINE
  8
0
 10
-4.529
 11
-4.565
 20
0.207
 21
0.065
  0
LINE
  8
0
 10
-4.565
 11
-4.614
 20
0.065
 21
-0.074
  0
LINE
  8
0
 10
-4.614
 11
-4.677
 20
-0.074
 21
-0.207
  0
LINE
  8
0
 10
-4.677
 11
-4.753
 20
-0.207
 21
-0.333
  0
LINE
  8
0
 10
-4.753
 11
-4.84
 20
-0.333
 21
-0.452
  0
LINE
  8
0
 10
-4.84
 11
-4.939
 20
-0.452
 21
-0.561
  0
LINE
  8
0
 10
-4.939
 11
-5.048
 20
-0.561
 21
-0.66
  0
LINE
  8
0
 10
-5.048
 11
-5.167
 20
-0.66
 21
-0.747
  0
LINE
  8
0
 10
-5.167
 11
-5.293
 20
-0.747
 21
-0.823
  0
LINE
  8
0
 10
-5.293
 11
-5.426
 20
-0.823
 21
-0.886
  0
LINE
  8
0
 10
-5.426
 11
-5.565
 20
-0.886
 21
-0.935
  0
LINE
  8
0
 10
-5.565
 11
-5.707
 20
-0.935
 21
-0.971
  0
LINE
  8
0
 10
-5.707
 11
-5.853
 20
-0.971
 21
-0.993
  0
LINE
  8
0
 10
-5.853
 11
-6
 20
-0.993
 21
-1
  0
LINE
  8
0
 10
-6
 11
-38
 20
-1
 21
-1
  0
LINE
  8
0
 10
-38
 11
-38.147
 20
-1
 21
-0.993
  0
LINE
  8
0
 10
-38.147
 11
-38.293
 20
-0.993
 21
-0.971
  0
LINE
  8
0
 10
-38.293
 11
-38.435
 20
-0.971
 21
-0.935
  0
LINE
  8
0
 10
-38.435
 11
-38.574
 20
-0.935
 21
-0.886
  0
LINE
  8
0
 10
-38.574
 11
-38.707
 20
-0.886
 21
-0.823
  0
LINE
  8
0
 10
-38.707
 11
-38.833
 20
-0.823
 21
-0.747
  0
LINE
  8
0
 10
-38.833
 11
-38.952
 20
-0.747
 21
-0.66
  0
LINE
  8
0
 10
-38.952
 11
-39.061
 20
-0.66
 21
-0.561
  0
LINE
  8
0
 10
-39.061
 11
-39.16
 20
-0.561
 21
-0.452
  0
LINE
  8
0
 10
-39.16
 11
-39.247
 20
-0.452
 21
-0.333
  0
LINE
  8
0
 10
-39.247
 11
-39.323
 20
-0.333
 21
-0.207
  0
LINE
  8
0
 10
-39.323
 11
-39.386
 20
-0.207
 21
-0.074
  0
LINE
  8
0
 10
-39.386
 11
-39.435
 20
-0.074
 21
0.065
  0
LINE
  8
0
 10
-39.435
 11
-39.471
 20
0.065
 21
0.207
  0
LINE
  8
0
 10
-39.471
 11
-39.493
 20
0.207
 21
0.353
  0
LINE
  8
0
 10
-39.493
 11
-39.5
 20
0.353
 21
0.5
  0
LINE
  8
0
 10
-39.5
 11
-39.493
 20
18.5
 21
18.647
  0
LINE
  8
0
 10
-39.493
 11
-39.471
 20
18.647
 21
18.793
  0
LINE
  8
0
 10
-39.471
 11
-39.435
 20
18.793
 21
18.935
  0
LINE
  8
0
 10
-39.435
 11
-39.386
 20
18.935
 21
19.074
  0
LINE
  8
0
 10
-39.386
 11
-39.323
 20
19.074
 21
19.207
  0
LINE
  8
0
 10
-39.323
 11
-39.247
 20
19.207
 21
19.333
  0
LINE
  8
0
 10
-39.247
 11
-39.16
 20
19.333
 21
19.452
  0
LINE
  8
0
 10
-39.16
 11
-39.061
 20
19.452
 21
19.561
  0
LINE
  8
0
 10
-39.061
 11
-38.952
 20
19.561
 21
19.66
  0
LINE
  8
0
 10
-38.952
 11
-38.833
 20
19.66
 21
19.747
  0
LINE
  8
0
 10
-38.833
 11
-38.707
 20
19.747
 21
19.823
  0
LINE
  8
0
 10
-38.707
 11
-38.574
 20
19.823
 21
19.886
  0
LINE
  8
0
 10
-38.574
 11
-38.435
 20
19.886
 21
19.935
  0
LINE
  8
0
 10
-38.435
 11
-38.293
 20
19.935
 21
19.971
  0
LINE
  8
0
 10
-38.293
 11
-38.147
 20
19.971
 21
19.993
  0
LINE
  8
0
 10
-38.147
 11
-38
 20
19.993
 21
20
  0
LINE
  8
0
 10
-38
 11
-6
 20
20
 21
20
  0
LINE
  8
0
 10
-6
 11
-5.853
 20
20
 21
19.993
  0
LINE
  8
0
 10
-5.853
 11
-5.707
 20
19.993
 21
19.971
  0
LINE
  8
0
 10
-5.707
 11
-5.565
 20
19.971
 21
19.935
  0
LINE
  8
0
 10
-5.565
 11
-5.426
 20
19.935
 21
19.886
  0
LINE
  8
0
 10
-5.426
 11
-5.293
 20
19.886
 21
19.823
  0
LINE
  8
0
 10
-5.293
 11
-5.167
 20
19.823
 21
19.747
  0
LINE
  8
0
 10
-5.167
 11
-5.048
 20
19.747
 21
19.66
  0
LINE
  8
0
 10
-5.048
 11
-4.939
 20
19.66
 21
19.561
  0
LINE
  8
0
 10
-4.939
 11
-4.84
 20
19.561
 21
19.452
  0
LINE
  8
0
 10
-4.84
 11
-4.753
 20
19.452
 21
19.333
  0
LINE
  8
0
 10
-4.753
 11
-4.677
 20
19.333
 21
19.207
  0
LINE
  8
0
 10
-4.677
 11
-4.614
 20
19.207
 21
19.074
  0
LINE
  8
0
 10
-4.614
 11
-4.565
 20
19.074
 21
18.935
  0
LINE
  8
0
 10
-4.565
 11
-4.529
 20
18.935
 21
18.793
  0
LINE
  8
0
 10
-4.529
 11
-4.507
 20
18.793
 21
18.647
  0
LINE
  8
0
 10
-4.507
 11
-4.5
 20
18.647
 21
18.5
  0
LINE
  8
0
 10
-4.5
 11
-4.507
 20
18.5
 21
18.353
  0
LINE
  8
0
 10
-4.507
 11
-4.529
 20
18.353
 21
18.207
  0
LINE
  8
0
 10
-4.529
 11
-4.565
 20
18.207
 21
18.065
  0
LINE
  8
0
 10
-4.565
 11
-4.614
 20
18.065
 21
17.926
  0
LINE
  8
0
 10
-4.614
 11
-4.677
 20
17.926
 21
17.793
  0
LINE
  8
0
 10
-4.677
 11
-4.753
 20
17.793
 21
17.667
  0
LINE
  8
0
 10
-4.753
 11
-4.84
 20
17.667
 21
17.548
  0
LINE
  8
0
 10
-4.84
 11
-4.939
 20
17.548
 21
17.439
  0
LINE
  8
0
 10
-4.939
 11
-5.048
 20
17.439
 21
17.34
  0
LINE
  8
0
 10
-5.048
 11
-5.167
 20
17.34
 21
17.253
  0
LINE
  8
0
 10
-5.167
 11
-5.293
 20
17.253
 21
17.177
  0
LINE
  8
0
 10
-5.293
 11
-5.426
 20
17.177
 21
17.114
  0
LINE
  8
0
 10
-5.426
 11
-5.565
 20
17.114
 21
17.065
  0
LINE
  8
0
 10
-5.565
 11
-5.707
 20
17.065
 21
17.029
  0
LINE
  8
0
 10
-5.707
 11
-5.853
 20
17.029
 21
17.007
  0
LINE
  8
0
 10
-5.853
 11
-6
 20
17.007
 21
17
  0
LINE
  8
0
 10
-6
 11
-38
 20
17
 21
17
  0
LINE
  8
0
 10
-38
 11
-38.147
 20
17
 21
17.007
  0
LINE
  8
0
 10
-38.147
 11
-38.293
 20
17.007
 21
17.029
  0
LINE
  8
0
 10
-38.293
 11
-38.435
 20
17.029
 21
17.065
  0
LINE
  8
0
 10
-38.435
 11
-38.574
 20
17.065
 21
17.114
  0
LINE
  8
0
 10
-38.574
 11
-38.707
 20
17.114
 21
17.177
  0
LINE
  8
0
 10
-38.707
 11
-38.833
 20
17.177
 21
17.253
  0
LINE
  8
0
 10
-38.833
 11
-38.952
 20
17.253
 21
17.34
  0
LINE
  8
0
 10
-38.952
 11
-39.061
 20
17.34
 21
17.439
  0
LINE
  8
0
 10
-39.061
 11
-39.16
 20
17.439
 21
17.548
  0
LINE
  8
0
 10
-39.16
 11
-39.247
 20
17.548
 21
17.667
  0
LINE
  8
0
 10
-39.247
 11
-39.323
 20
17.667
 21
17.793
  0
LINE
  8
0
 10
-39.323
 11
-39.386
 20
17.793
 21
17.926
  0
LINE
  8
0
 10
-39.386
 11
-39.435
 20
17.926
 21
18.065
  0
LINE
  8
0
 10
-39.435
 11
-39.471
 20
18.065
 21
18.207
  0
LINE
  8
0
 10
-39.471
 11
-39.493
 20
18.207
 21
18.353
  0
LINE
  8
0
 10
-39.493
 11
-39.5
 20
18.353
 21
18.5
  0
LINE
  8
0
 10
0
 11
0
 20
-5
 21
23
  0
LINE
  8
0
 10
0
 11
10
 20
23
 21
23
  0
LINE
  8
0
 10
10
 11
10
 20
23
 21
26.5
  0
LINE
  8
0
 10
10
 11
30
 20
26.5
 21
26.5
  0
LINE
  8
0
 10
30
 11
30
 20
26.5
 21
23
  0
LINE
  8
0
 10
30
 11
40
 20
23
 21
23
  0
LINE
  8
0
 10
40
 11
40
 20
23
 21
-5
  0
LINE
  8
0
 10
40
 11
30
 20
-5
 21
-5
  0
LINE
  8
0
 10
30
 11
30
 20
-5
 21
-8.5
  0
LINE
  8
0
 10
30
 11
10
 20
-8.5
 21
-8.5
  0
LINE
  8
0
 10
10
 11
10
 20
-8.5
 21
-5
  0
LINE
  8
0
 10
10
 11
0
 20
-5
 21
-5
  0
LINE
  8
0
 10
0
 11
0
 20
32
 21
60
  0
LINE
  8
0
 10
0
 11
10
 20
60
 21
60
  0
LINE
  8
0
 10
10
 11
10
 20
60
 21
63.5
  0
LINE
  8
0
 10
10
 11
30
 20
63.5
 21
63.5
  0
LINE
  8
0
 10
30
 11
30
 20
63.5
 21
60
  0
LINE
  8
0
 10
30
 11
40
 20
60
 21
60
  0
LINE
  8
0
 10
40
 11
40
 20
60
 21
32
  0
LINE
  8
0
 10
40
 11
30
 20
32
 21
32
  0
LINE
  8
0
 10
30
 11
30
 20
32
 21
28.5
  0
LINE
  8
0
 10
30
 11
10
 20
28.5
 21
28.5
  0
LINE
  8
0
 10
10
 11
10
 20
28.5
 21
32
  0
LINE
  8
0
 10
10
 11
0
 20
32
 21
32
  0
LINE
  8
0
 10
3.6
 11
3.607
 20
2.75
 21
2.887
  0
LINE
  8
0
 10
3.607
 11
3.627
 20
2.887
 21
3.023
  0
LINE
  8
0
 10
3.627
 11
3.66
 20
3.023
 21
3.156
  0
LINE
  8
0
 10
3.66
 11
3.707
 20
3.156
 21
3.286
  0
LINE
  8
0
 10
3.707
 11
3.765
 20
3.286
 21
3.41
  0
LINE
  8
0
 10
3.765
 11
3.836
 20
3.41
 21
3.528
  0
LINE
  8
0
 10
3.836
 11
3.918
 20
3.528
 21
3.638
  0
LINE
  8
0
 10
3.918
 11
4.01
 20
3.638
 21
3.74
  0
LINE
  8
0
 10
4.01
 11
4.112
 20
3.74
 21
3.832
  0
LINE
  8
0
 10
4.112
 11
4.222
 20
3.832
 21
3.914
  0
LINE
  8
0
 10
4.222
 11
4.34
 20
3.914
 21
3.985
  0
LINE
  8
0
 10
4.34
 11
4.464
 20
3.985
 21
4.043
  0
LINE
  8
0
 10
4.464
 11
4.594
 20
4.043
 21
4.09
  0
LINE
  8
0
 10
4.594
 11
4.727
 20
4.09
 21
4.123
  0
LINE
  8
0
 10
4.727
 11
4.863
 20
4.123
 21
4.143
  0
LINE
  8
0
 10
4.863
 11
5
 20
4.143
 21
4.15
  0
LINE
  8
0
 10
5
 11
5.137
 20
4.15
 21
4.143
  0
LINE
  8
0
 10
5.137
 11
5.273
 20
4.143
 21
4.123
  0
LINE
  8
0
 10
5.273
 11
5.406
 20
4.123
 21
4.09
  0
LINE
  8
0
 10
5.406
 11
5.536
 20
4.09
 21
4.043
  0
LINE
  8
0
 10
5.536
 11
5.66
 20
4.043
 21
3.985
  0
LINE
  8
0
 10
5.66
 11
5.778
 20
3.985
 21
3.914
  0
LINE
  8
0
 10
5.778
 11
5.888
 20
3.914
 21
3.832
  0
LINE
  8
0
 10
5.888
 11
5.99
 20
3.832
 21
3.74
  0
LINE
  8
0
 10
5.99
 11
6.082
 20
3.74
 21
3.638
  0
LINE
  8
0
 10
6.082
 11
6.164
 20
3.638
 21
3.528
  0
LINE
  8
0
 10
6.164
 11
6.235
 20
3.528
 21
3.41
  0
LINE
  8
0
 10
6.235
 11
6.293
 20
3.41
 21
3.286
  0
LINE
  8
0
 10
6.293
 11
6.34
 20
3.286
 21
3.156
  0
LINE
  8
0
 10
6.34
 11
6.373
 20
3.156
 21
3.023
  0
LINE
  8
0
 10
6.373
 11
6.393
 20
3.023
 21
2.887
  0
LINE
  8
0
 10
6.393
 11
6.4
 20
2.887
 21
2.75
  0
LINE
  8
0
 10
6.4
 11
6.393
 20
2.75
 21
2.613
  0
LINE
  8
0
 10
6.393
 11
6.373
 20
2.613
 21
2.477
  0
LINE
  8
0
 10
6.373
 11
6.34
 20
2.477
 21
2.344
  0
LINE
  8
0
 10
6.34
 11
6.293
 20
2.344
 21
2.214
  0
LINE
  8
0
 10
6.293
 11
6.235
 20
2.214
 21
2.09
  0
LINE
  8
0
 10
6.235
 11
6.164
 20
2.09
 21
1.972
  0
LINE
  8
0
 10
6.164
 11
6.082
 20
1.972
 21
1.862
  0
LINE
  8
0
 10
6.082
 11
5.99
 20
1.862
 21
1.76
  0
LINE
  8
0
 10
5.99
 11
5.888
 20
1.76
 21
1.668
  0
LINE
  8
0
 10
5.888
 11
5.778
 20
1.668
 21
1.586
  0
LINE
  8
0
 10
5.778
 11
5.66
 20
1.586
 21
1.515
  0
LINE
  8
0
 10
5.66
 11
5.536
 20
1.515
 21
1.457
  0
LINE
  8
0
 10
5.536
 11
5.406
 20
1.457
 21
1.41
  0
LINE
  8
0
 10
5.406
 11
5.273
 20
1.41
 21
1.377
  0
LINE
  8
0
 10
5.273
 11
5.137
 20
1.377
 21
1.357
  0
LINE
  8
0
 10
5.137
 11
5
 20
1.357
 21
1.35
  0
LINE
  8
0
 10
5
 11
4.863
 20
1.35
 21
1.357
  0
LINE
  8
0
 10
4.863
 11
4.727
 20
1.357
 21
1.377
  0
LINE
  8
0
 10
4.727
 11
4.594
 20
1.377
 21
1.41
  0
LINE
  8
0
 10
4.594
 11
4.464
 20
1.41
 21
1.457
  0
LINE
  8
0
 10
4.464
 11
4.34
 20
1.457
 21
1.515
  0
LINE
  8
0
 10
4.34
 11
4.222
 20
1.515
 21
1.586
  0
LINE
  8
0
 10
4.222
 11
4.112
 20
1.586
 21
1.668
  0
LINE
  8
0
 10
4.112
 11
4.01
 20
1.668
 21
1.76
  0
LINE
  8
0
 10
4.01
 11
3.918
 20
1.76
 21
1.862
  0
LINE
  8
0
 10
3.918
 11
3.836
 20
1.862
 21
1.972
  0
LINE
  8
0
 10
3.836
 11
3.765
 20
1.972
 21
2.09
  0
LINE
  8
0
 10
3.765
 11
3.707
 20
2.09
 21
2.214
  0
LINE
  8
0
 10
3.707
 11
3.66
 20
2.214
 21
2.344
  0
LINE
  8
0
 10
3.66
 11
3.627
 20
2.344
 21
2.477
  0
LINE
  8
0
 10
3.627
 11
3.607
 20
2.477
 21
2.613
  0
LINE
  8
0
 10
3.607
 11
3.6
 20
2.613
 21
2.75
  0
LINE
  8
0
 10
3.6
 11
3.607
 20
20.25
 21
20.387
  0
LINE
  8
0
 10
3.607
 11
3.627
 20
20.387
 21
20.523
  0
LINE
  8
0
 10
3.627
 11
3.66
 20
20.523
 21
20.656
  0
LINE
  8
0
 10
3.66
 11
3.707
 20
20.656
 21
20.786
  0
LINE
  8
0
 10
3.707
 11
3.765
 20
20.786
 21
20.91
  0
LINE
  8
0
 10
3.765
 11
3.836
 20
20.91
 21
21.028
  0
LINE
  8
0
 10
3.836
 11
3.918
 20
21.028
 21
21.138
  0
LINE
  8
0
 10
3.918
 11
4.01
 20
21.138
 21
21.24
  0
LINE
  8
0
 10
4.01
 11
4.112
 20
21.24
 21
21.332
  0
LINE
  8
0
 10
4.112
 11
4.222
 20
21.332
 21
21.414
  0
LINE
  8
0
 10
4.222
 11
4.34
 20
21.414
 21
21.485
  0
LINE
  8
0
 10
4.34
 11
4.464
 20
21.485
 21
21.543
  0
LINE
  8
0
 10
4.464
 11
4.594
 20
21.543
 21
21.59
  0
LINE
  8
0
 10
4.594
 11
4.727
 20
21.59
 21
21.623
  0
LINE
  8
0
 10
4.727
 11
4.863
 20
21.623
 21
21.643
  0
LINE
  8
0
 10
4.863
 11
5
 20
21.643
 21
21.65
  0
LINE
  8
0
 10
5
 11
5.137
 20
21.65
 21
21.643
  0
LINE
  8
0
 10
5.137
 11
5.273
 20
21.643
 21
21.623
  0
LINE
  8
0
 10
5.273
 11
5.406
 20
21.623
 21
21.59
  0
LINE
  8
0
 10
5.406
 11
5.536
 20
21.59
 21
21.543
  0
LINE
  8
0
 10
5.536
 11
5.66
 20
21.543
 21
21.485
  0
LINE
  8
0
 10
5.66
 11
5.778
 20
21.485
 21
21.414
  0
LINE
  8
0
 10
5.778
 11
5.888
 20
21.414
 21
21.332
  0
LINE
  8
0
 10
5.888
 11
5.99
 20
21.332
 21
21.24
  0
LINE
  8
0
 10
5.99
 11
6.082
 20
21.24
 21
21.138
  0
LINE
  8
0
 10
6.082
 11
6.164
 20
21.138
 21
21.028
  0
LINE
  8
0
 10
6.164
 11
6.235
 20
21.028
 21
20.91
  0
LINE
  8
0
 10
6.235
 11
6.293
 20
20.91
 21
20.786
  0
LINE
  8
0
 10
6.293
 11
6.34
 20
20.786
 21
20.656
  0
LINE
  8
0
 10
6.34
 11
6.373
 20
20.656
 21
20.523
  0
LINE
  8
0
 10
6.373
 11
6.393
 20
20.523
 21
20.387
  0
LINE
  8
0
 10
6.393
 11
6.4
 20
20.387
 21
20.25
  0
LINE
  8
0
 10
6.4
 11
6.393
 20
20.25
 21
20.113
  0
LINE
  8
0
 10
6.393
 11
6.373
 20
20.113
 21
19.977
  0
LINE
  8
0
 10
6.373
 11
6.34
 20
19.977
 21
19.844
  0
LINE
  8
0
 10
6.34
 11
6.293
 20
19.844
 21
19.714
  0
LINE
  8
0
 10
6.293
 11
6.235
 20
19.714
 21
19.59
  0
LINE
  8
0
 10
6.235
 11
6.164
 20
19.59
 21
19.472
  0
LINE
  8
0
 10
6.164
 11
6.082
 20
19.472
 21
19.362
  0
LINE
  8
0
 10
6.082
 11
5.99
 20
19.362
 21
19.26
  0
LINE
  8
0
 10
5.99
 11
5.888
 20
19.26
 21
19.168
  0
LINE
  8
0
 10
5.888
 11
5.778
 20
19.168
 21
19.086
  0
LINE
  8
0
 10
5.778
 11
5.66
 20
19.086
 21
19.015
  0
LINE
  8
0
 10
5.66
 11
5.536
 20
19.015
 21
18.957
  0
LINE
  8
0
 10
5.536
 11
5.406
 20
18.957
 21
18.91
  0
LINE
  8
0
 10
5.406
 11
5.273
 20
18.91
 21
18.877
  0
LINE
  8
0
 10
5.273
 11
5.137
 20
18.877
 21
18.857
  0
LINE
  8
0
 10
5.137
 11
5
 20
18.857
 21
18.85
  0
LINE
  8
0
 10
5
 11
4.863
 20
18.85
 21
18.857
  0
LINE
  8
0
 10
4.863
 11
4.727
 20
18.857
 21
18.877
  0
LINE
  8
0
 10
4.727
 11
4.594
 20
18.877
 21
18.91
  0
LINE
  8
0
 10
4.594
 11
4.464
 20
18.91
 21
18.957
  0
LINE
  8
0
 10
4.464
 11
4.34
 20
18.957
 21
19.015
  0
LINE
  8
0
 10
4.34
 11
4.222
 20
19.015
 21
19.086
  0
LINE
  8
0
 10
4.222
 11
4.112
 20
19.086
 21
19.168
  0
LINE
  8
0
 10
4.112
 11
4.01
 20
19.168
 21
19.26
  0
LINE
  8
0
 10
4.01
 11
3.918
 20
19.26
 21
19.362
  0
LINE
  8
0
 10
3.918
 11
3.836
 20
19.362
 21
19.472
  0
LINE
  8
0
 10
3.836
 11
3.765
 20
19.472
 21
19.59
  0
LINE
  8
0
 10
3.765
 11
3.707
 20
19.59
 21
19.714
  0
LINE
  8
0
 10
3.707
 11
3.66
 20
19.714
 21
19.844
  0
LINE
  8
0
 10
3.66
 11
3.627
 20
19.844
 21
19.977
  0
LINE
  8
0
 10
3.627
 11
3.607
 20
19.977
 21
20.113
  0
LINE
  8
0
 10
3.607
 11
3.6
 20
20.113
 21
20.25
  0
LINE
  8
0
 10
3.6
 11
3.607
 20
39.75
 21
39.887
  0
LINE
  8
0
 10
3.607
 11
3.627
 20
39.887
 21
40.023
  0
LINE
  8
0
 10
3.627
 11
3.66
 20
40.023
 21
40.156
  0
LINE
  8
0
 10
3.66
 11
3.707
 20
40.156
 21
40.286
  0
LINE
  8
0
 10
3.707
 11
3.765
 20
40.286
 21
40.41
  0
LINE
  8
0
 10
3.765
 11
3.836
 20
40.41
 21
40.528
  0
LINE
  8
0
 10
3.836
 11
3.918
 20
40.528
 21
40.638
  0
LINE
  8
0
 10
3.918
 11
4.01
 20
40.638
 21
40.74
  0
LINE
  8
0
 10
4.01
 11
4.112
 20
40.74
 21
40.832
  0
LINE
  8
0
 10
4.112
 11
4.222
 20
40.832
 21
40.914
  0
LINE
  8
0
 10
4.222
 11
4.34
 20
40.914
 21
40.985
  0
LINE
  8
0
 10
4.34
 11
4.464
 20
40.985
 21
41.043
  0
LINE
  8
0
 10
4.464
 11
4.594
 20
41.043
 21
41.09
  0
LINE
  8
0
 10
4.594
 11
4.727
 20
41.09
 21
41.123
  0
LINE
  8
0
 10
4.727
 11
4.863
 20
41.123
 21
41.143
  0
LINE
  8
0
 10
4.863
 11
5
 20
41.143
 21
41.15
  0
LINE
  8
0
 10
5
 11
5.137
 20
41.15
 21
41.143
  0
LINE
  8
0
 10
5.137
 11
5.273
 20
41.143
 21
41.123
  0
LINE
  8
0
 10
5.273
 11
5.406
 20
41.123
 21
41.09
  0
LINE
  8
0
 10
5.406
 11
5.536
 20
41.09
 21
41.043
  0
LINE
  8
0
 10
5.536
 11
5.66
 20
41.043
 21
40.985
  0
LINE
  8
0
 10
5.66
 11
5.778
 20
40.985
 21
40.914
  0
LINE
  8
0
 10
5.778
 11
5.888
 20
40.914
 21
40.832
  0
LINE
  8
0
 10
5.888
 11
5.99
 20
40.832
 21
40.74
  0
LINE
  8
0
 10
5.99
 11
6.082
 20
40.74
 21
40.638
  0
LINE
  8
0
 10
6.082
 11
6.164
 20
40.638
 21
40.528
  0
LINE
  8
0
 10
6.164
 11
6.235
 20
40.528
 21
40.41
  0
LINE
  8
0
 10
6.235
 11
6.293
 20
40.41
 21
40.286
  0
LINE
  8
0
 10
6.293
 11
6.34
 20
40.286
 21
40.156
  0
LINE
  8
0
 10
6.34
 11
6.373
 20
40.156
 21
40.023
  0
LINE
  8
0
 10
6.373
 11
6.393
 20
40.023
 21
39.887
  0
LINE
  8
0
 10
6.393
 11
6.4
 20
39.887
 21
39.75
  0
LINE
  8
0
 10
6.4
 11
6.393
 20
39.75
 21
39.613
  0
LINE
  8
0
 10
6.393
 11
6.373
 20
39.613
 21
39.477
  0
LINE
  8
0
 10
6.373
 11
6.34
 20
39.477
 21
39.344
  0
LINE
  8
0
 10
6.34
 11
6.293
 20
39.344
 21
39.214
  0
LINE
  8
0
 10
6.293
 11
6.235
 20
39.214
 21
39.09
  0
LINE
  8
0
 10
6.235
 11
6.164
 20
39.09
 21
38.972
  0
LINE
  8
0
 10
6.164
 11
6.082
 20
38.972
 21
38.862
  0
LINE
  8
0
 10
6.082
 11
5.99
 20
38.862
 21
38.76
  0
LINE
  8
0
 10
5.99
 11
5.888
 20
38.76
 21
38.668
  0
LINE
  8
0
 10
5.888
 11
5.778
 20
38.668
 21
38.586
  0
LINE
  8
0
 10
5.778
 11
5.66
 20
38.586
 21
38.515
  0
LINE
  8
0
 10
5.66
 11
5.536
 20
38.515
 21
38.457
  0
LINE
  8
0
 10
5.536
 11
5.406
 20
38.457
 21
38.41
  0
LINE
  8
0
 10
5.406
 11
5.273
 20
38.41
 21
38.377
  0
LINE
  8
0
 10
5.273
 11
5.137
 20
38.377
 21
38.357
  0
LINE
  8
0
 10
5.137
 11
5
 20
38.357
 21
38.35
  0
LINE
  8
0
 10
5
 11
4.863
 20
38.35
 21
38.357
  0
LINE
  8
0
 10
4.863
 11
4.727
 20
38.357
 21
38.377
  0
LINE
  8
0
 10
4.727
 11
4.594
 20
38.377
 21
38.41
  0
LINE
  8
0
 10
4.594
 11
4.464
 20
38.41
 21
38.457
  0
LINE
  8
0
 10
4.464
 11
4.34
 20
38.457
 21
38.515
  0
LINE
  8
0
 10
4.34
 11
4.222
 20
38.515
 21
38.586
  0
LINE
  8
0
 10
4.222
 11
4.112
 20
38.586
 21
38.668
  0
LINE
  8
0
 10
4.112
 11
4.01
 20
38.668
 21
38.76
  0
LINE
  8
0
 10
4.01
 11
3.918
 20
38.76
 21
38.862
  0
LINE
  8
0
 10
3.918
 11
3.836
 20
38.862
 21
38.972
  0
LINE
  8
0
 10
3.836
 11
3.765
 20
38.972
 21
39.09
  0
LINE
  8
0
 10
3.765
 11
3.707
 20
39.09
 21
39.214
  0
LINE
  8
0
 10
3.707
 11
3.66
 20
39.214
 21
39.344
  0
LINE
  8
0
 10
3.66
 11
3.627
 20
39.344
 21
39.477
  0
LINE
  8
0
 10
3.627
 11
3.607
 20
39.477
 21
39.613
  0
LINE
  8
0
 10
3.607
 11
3.6
 20
39.613
 21
39.75
  0
LINE
  8
0
 10
3.6
 11
3.607
 20
57.25
 21
57.387
  0
LINE
  8
0
 10
3.607
 11
3.627
 20
57.387
 21
57.523
  0
LINE
  8
0
 10
3.627
 11
3.66
 20
57.523
 21
57.656
  0
LINE
  8
0
 10
3.66
 11
3.707
 20
57.656
 21
57.786
  0
LINE
  8
0
 10
3.707
 11
3.765
 20
57.786
 21
57.91
  0
LINE
  8
0
 10
3.765
 11
3.836
 20
57.91
 21
58.028
  0
LINE
  8
0
 10
3.836
 11
3.918
 20
58.028
 21
58.138
  0
LINE
  8
0
 10
3.918
 11
4.01
 20
58.138
 21
58.24
  0
LINE
  8
0
 10
4.01
 11
4.112
 20
58.24
 21
58.332
  0
LINE
  8
0
 10
4.112
 11
4.222
 20
58.332
 21
58.414
  0
LINE
  8
0
 10
4.222
 11
4.34
 20
58.414
 21
58.485
  0
LINE
  8
0
 10
4.34
 11
4.464
 20
58.485
 21
58.543
  0
LINE
  8
0
 10
4.464
 11
4.594
 20
58.543
 21
58.59
  0
LINE
  8
0
 10
4.594
 11
4.727
 20
58.59
 21
58.623
  0
LINE
  8
0
 10
4.727
 11
4.863
 20
58.623
 21
58.643
  0
LINE
  8
0
 10
4.863
 11
5
 20
58.643
 21
58.65
  0
LINE
  8
0
 10
5
 11
5.137
 20
58.65
 21
58.643
  0
LINE
  8
0
 10
5.137
 11
5.273
 20
58.643
 21
58.623
  0
LINE
  8
0
 10
5.273
 11
5.406
 20
58.623
 21
58.59
  0
LINE
  8
0
 10
5.406
 11
5.536
 20
58.59
 21
58.543
  0
LINE
  8
0
 10
5.536
 11
5.66
 20
58.543
 21
58.485
  0
LINE
  8
0
 10
5.66
 11
5.778
 20
58.485
 21
58.414
  0
LINE
  8
0
 10
5.778
 11
5.888
 20
58.414
 21
58.332
  0
LINE
  8
0
 10
5.888
 11
5.99
 20
58.332
 21
58.24
  0
LINE
  8
0
 10
5.99
 11
6.082
 20
58.24
 21
58.138
  0
LINE
  8
0
 10
6.082
 11
6.164
 20
58.138
 21
58.028
  0
LINE
  8
0
 10
6.164
 11
6.235
 20
58.028
 21
57.91
  0
LINE
  8
0
 10
6.235
 11
6.293
 20
57.91
 21
57.786
  0
LINE
  8
0
 10
6.293
 11
6.34
 20
57.786
 21
57.656
  0
LINE
  8
0
 10
6.34
 11
6.373
 20
57.656
 21
57.523
  0
LINE
  8
0
 10
6.373
 11
6.393
 20
57.523
 21
57.387
  0
LINE
  8
0
 10
6.393
 11
6.4
 20
57.387
 21
57.25
  0
LINE
  8
0
 10
6.4
 11
6.393
 20
57.25
 21
57.113
  0
LINE
  8
0
 10
6.393
 11
6.373
 20
57.113
 21
56.977
  0
LINE
  8
0
 10
6.373
 11
6.34
 20
56.977
 21
56.844
  0
LINE
  8
0
 10
6.34
 11
6.293
 20
56.844
 21
56.714
  0
LINE
  8
0
 10
6.293
 11
6.235
 20
56.714
 21
56.59
  0
LINE
  8
0
 10
6.235
 11
6.164
 20
56.59
 21
56.472
  0
LINE
  8
0
 10
6.164
 11
6.082
 20
56.472
 21
56.362
  0
LINE
  8
0
 10
6.082
 11
5.99
 20
56.362
 21
56.26
  0
LINE
  8
0
 10
5.99
 11
5.888
 20
56.26
 21
56.168
  0
LINE
  8
0
 10
5.888
 11
5.778
 20
56.168
 21
56.086
  0
LINE
  8
0
 10
5.778
 11
5.66
 20
56.086
 21
56.015
  0
LINE
  8
0
 10
5.66
 11
5.536
 20
56.015
 21
55.957
  0
LINE
  8
0
 10
5.536
 11
5.406
 20
55.957
 21
55.91
  0
LINE
  8
0
 10
5.406
 11
5.273
 20
55.91
 21
55.877
  0
LINE
  8
0
 10
5.273
 11
5.137
 20
55.877
 21
55.857
  0
LINE
  8
0
 10
5.137
 11
5
 20
55.857
 21
55.85
  0
LINE
  8
0
 10
5
 11
4.863
 20
55.85
 21
55.857
  0
LINE
  8
0
 10
4.863
 11
4.727
 20
55.857
 21
55.877
  0
LINE
  8
0
 10
4.727
 11
4.594
 20
55.877
 21
55.91
  0
LINE
  8
0
 10
4.594
 11
4.464
 20
55.91
 21
55.957
  0
LINE
  8
0
 10
4.464
 11
4.34
 20
55.957
 21
56.015
  0
LINE
  8
0
 10
4.34
 11
4.222
 20
56.015
 21
56.086
  0
LINE
  8
0
 10
4.222
 11
4.112
 20
56.086
 21
56.168
  0
LINE
  8
0
 10
4.112
 11
4.01
 20
56.168
 21
56.26
  0
LINE
  8
0
 10
4.01
 11
3.918
 20
56.26
 21
56.362
  0
LINE
  8
0
 10
3.918
 11
3.836
 20
56.362
 21
56.472
  0
LINE
  8
0
 10
3.836
 11
3.765
 20
56.472
 21
56.59
  0
LINE
  8
0
 10
3.765
 11
3.707
 20
56.59
 21
56.714
  0
LINE
  8
0
 10
3.707
 11
3.66
 20
56.714
 21
56.844
  0
LINE
  8
0
 10
3.66
 11
3.627
 20
56.844
 21
56.977
  0
LINE
  8
0
 10
3.627
 11
3.607
 20
56.977
 21
57.113
  0
LINE
  8
0
 10
3.607
 11
3.6
 20
57.113
 21
57.25
  0
LINE
  8
0
 10
18.3
 11
18.332
 20
11.5
 21
12.157
  0
LINE
  8
0
 10
18.332
 11
18.429
 20
12.157
 21
12.807
  0
LINE
  8
0
 10
18.429
 11
18.589
 20
12.807
 21
13.445
  0
LINE
  8
0
 10
18.589
 11
18.81
 20
13.445
 21
14.064
  0
LINE
  8
0
 10
18.81
 11
19.091
 20
14.064
 21
14.658
  0
LINE
  8
0
 10
19.091
 11
19.429
 20
14.658
 21
15.222
  0
LINE
  8
0
 10
19.429
 11
19.821
 20
15.222
 21
15.75
  0
LINE
  8
0
 10
19.821
 11
20.262
 20
15.75
 21
16.238
  0
LINE
  8
0
 10
20.262
 11
20.75
 20
16.238
 21
16.679
  0
LINE
  8
0
 10
20.75
 11
21.278
 20
16.679
 21
17.071
  0
LINE
  8
0
 10
21.278
 11
21.842
 20
17.071
 21
17.409
  0
LINE
  8
0
 10
21.842
 11
22.436
 20
17.409
 21
17.69
  0
LINE
  8
0
 10
22.436
 11
23.055
 20
17.69
 21
17.911
  0
LINE
  8
0
 10
23.055
 11
23.693
 20
17.911
 21
18.071
  0
LINE
  8
0
 10
23.693
 11
24.343
 20
18.071
 21
18.168
  0
LINE
  8
0
 10
24.343
 11
25
 20
18.168
 21
18.2
  0
LINE
  8
0
 10
25
 11
25.657
 20
18.2
 21
18.168
  0
LINE
  8
0
 10
25.657
 11
26.307
 20
18.168
 21
18.071
  0
LINE
  8
0
 10
26.307
 11
26.945
 20
18.071
 21
17.911
  0
LINE
  8
0
 10
26.945
 11
27.564
 20
17.911
 21
17.69
  0
LINE
  8
0
 10
27.564
 11
28.158
 20
17.69
 21
17.409
  0
LINE
  8
0
 10
28.158
 11
28.722
 20
17.409
 21
17.071
  0
LINE
  8
0
 10
28.722
 11
29.25
 20
17.071
 21
16.679
  0
LINE
  8
0
 10
29.25
 11
29.738
 20
16.679
 21
16.238
  0
LINE
  8
0
 10
29.738
 11
30.179
 20
16.238
 21
15.75
  0
LINE
  8
0
 10
30.179
 11
30.571
 20
15.75
 21
15.222
  0
LINE
  8
0
 10
30.571
 11
30.909
 20
15.222
 21
14.658
  0
LINE
  8
0
 10
30.909
 11
31.19
 20
14.658
 21
14.064
  0
LINE
  8
0
 10
31.19
 11
31.411
 20
14.064
 21
13.445
  0
LINE
  8
0
 10
31.411
 11
31.571
 20
13.445
 21
12.807
  0
LINE
  8
0
 10
31.571
 11
31.668
 20
12.807
 21
12.157
  0
LINE
  8
0
 10
31.668
 11
31.7
 20
12.157
 21
11.5
  0
LINE
  8
0
 10
31.7
 11
31.668
 20
11.5
 21
10.843
  0
LINE
  8
0
 10
31.668
 11
31.571
 20
10.843
 21
10.193
  0
LINE
  8
0
 10
31.571
 11
31.411
 20
10.193
 21
9.555
  0
LINE
  8
0
 10
31.411
 11
31.19
 20
9.555
 21
8.936
  0
LINE
  8
0
 10
31.19
 11
30.909
 20
8.936
 21
8.342
  0
LINE
  8
0
 10
30.909
 11
30.571
 20
8.342
 21
7.778
  0
LINE
  8
0
 10
30.571
 11
30.179
 20
7.778
 21
7.25
  0
LINE
  8
0
 10
30.179
 11
29.738
 20
7.25
 21
6.762
  0
LINE
  8
0
 10
29.738
 11
29.25
 20
6.762
 21
6.321
  0
LINE
  8
0
 10
29.25
 11
28.722
 20
6.321
 21
5.929
  0
LINE
  8
0
 10
28.722
 11
28.158
 20
5.929
 21
5.591
  0
LINE
  8
0
 10
28.158
 11
27.564
 20
5.591
 21
5.31
  0
LINE
  8
0
 10
27.564
 11
26.945
 20
5.31
 21
5.089
  0
LINE
  8
0
 10
26.945
 11
26.307
 20
5.089
 21
4.929
  0
LINE
  8
0
 10
26.307
 11
25.657
 20
4.929
 21
4.832
  0
LINE
  8
0
 10
25.657
 11
25
 20
4.832
 21
4.8
  0
LINE
  8
0
 10
25
 11
24.343
 20
4.8
 21
4.832
  0
LINE
  8
0
 10
24.343
 11
23.693
 20
4.832
 21
4.929
  0
LINE
  8
0
 10
23.693
 11
23.055
 20
4.929
 21
5.089
  0
LINE
  8
0
 10
23.055
 11
22.436
 20
5.089
 21
5.31
  0
LINE
  8
0
 10
22.436
 11
21.842
 20
5.31
 21
5.591
  0
LINE
  8
0
 10
21.842
 11
21.278
 20
5.591
 21
5.929
  0
LINE
  8
0
 10
21.278
 11
20.75
 20
5.929
 21
6.321
  0
LINE
  8
0
 10
20.75
 11
20.262
 20
6.321
 21
6.762
  0
LINE
  8
0
 10
20.262
 11
19.821
 20
6.762
 21
7.25
  0
LINE
  8
0
 10
19.821
 11
19.429
 20
7.25
 21
7.778
  0
LINE
  8
0
 10
19.429
 11
19.091
 20
7.778
 21
8.342
  0
LINE
  8
0
 10
19.091
 11
18.81
 20
8.342
 21
8.936
  0
LINE
  8
0
 10
18.81
 11
18.589
 20
8.936
 21
9.555
  0
LINE
  8
0
 10
18.589
 11
18.429
 20
9.555
 21
10.193
  0
LINE
  8
0
 10
18.429
 11
18.332
 20
10.193
 21
10.843
  0
LINE
  8
0
 10
18.332
 11
18.3
 20
10.843
 21
11.5
  0
LINE
  8
0
 10
18.3
 11
18.332
 20
48.5
 21
49.157
  0
LINE
  8
0
 10
18.332
 11
18.429
 20
49.157
 21
49.807
  0
LINE
  8
0
 10
18.429
 11
18.589
 20
49.807
 21
50.445
  0
LINE
  8
0
 10
18.589
 11
18.81
 20
50.445
 21
51.064
  0
LINE
  8
0
 10
18.81
 11
19.091
 20
51.064
 21
51.658
  0
LINE
  8
0
 10
19.091
 11
19.429
 20
51.658
 21
52.222
  0
LINE
  8
0
 10
19.429
 11
19.821
 20
52.222
 21
52.75
  0
LINE
  8
0
 10
19.821
 11
20.262
 20
52.75
 21
53.238
  0
LINE
  8
0
 10
20.262
 11
20.75
 20
53.238
 21
53.679
  0
LINE
  8
0
 10
20.75
 11
21.278
 20
53.679
 21
54.071
  0
LINE
  8
0
 10
21.278
 11
21.842
 20
54.071
 21
54.409
  0
LINE
  8
0
 10
21.842
 11
22.436
 20
54.409
 21
54.69
  0
LINE
  8
0
 10
22.436
 11
23.055
 20
54.69
 21
54.911
  0
LINE
  8
0
 10
23.055
 11
23.693
 20
54.911
 21
55.071
  0
LINE
  8
0
 10
23.693
 11
24.343
 20
55.071
 21
55.168
  0
LINE
  8
0
 10
24.343
 11
25
 20
55.168
 21
55.2
  0
LINE
  8
0
 10
25
 11
25.657
 20
55.2
 21
55.168
  0
LINE
  8
0
 10
25.657
 11
26.307
 20
55.168
 21
55.071
  0
LINE
  8
0
 10
26.307
 11
26.945
 20
55.071
 21
54.911
  0
LINE
  8
0
 10
26.945
 11
27.564
 20
54.911
 21
54.69
  0
LINE
  8
0
 10
27.564
 11
28.158
 20
54.69
 21
54.409
  0
LINE
  8
0
 10
28.158
 11
28.722
 20
54.409
 21
54.071
  0
LINE
  8
0
 10
28.722
 11
29.25
 20
54.071
 21
53.679
  0
LINE
  8
0
 10
29.25
 11
29.738
 20
53.679
 21
53.238
  0
LINE
  8
0
 10
29.738
 11
30.179
 20
53.238
 21
52.75
  0
LINE
  8
0
 10
30.179
 11
30.571
 20
52.75
 21
52.222
  0
LINE
  8
0
 10
30.571
 11
30.909
 20
52.222
 21
51.658
  0
LINE
  8
0
 10
30.909
 11
31.19
 20
51.658
 21
51.064
  0
LINE
  8
0
 10
31.19
 11
31.411
 20
51.064
 21
50.445
  0
LINE
  8
0
 10
31.411
 11
31.571
 20
50.445
 21
49.807
  0
LINE
  8
0
 10
31.571
 11
31.668
 20
49.807
 21
49.157
  0
LINE
  8
0
 10
31.668
 11
31.7
 20
49.157
 21
48.5
  0
LINE
  8
0
 10
31.7
 11
31.668
 20
48.5
 21
47.843
  0
LINE
  8
0
 10
31.668
 11
31.571
 20
47.843
 21
47.193
  0
LINE
  8
0
 10
31.571
 11
31.411
 20
47.193
 21
46.555
  0
LINE
  8
0
 10
31.411
 11
31.19
 20
46.555
 21
45.936
  0
LINE
  8
0
 10
31.19
 11
30.909
 20
45.936
 21
45.342
  0
LINE
  8
0
 10
30.909
 11
30.571
 20
45.342
 21
44.778
  0
LINE
  8
0
 10
30.571
 11
30.179
 20
44.778
 21
44.25
  0
LINE
  8
0
 10
30.179
 11
29.738
 20
44.25
 21
43.762
  0
LINE
  8
0
 10
29.738
 11
29.25
 20
43.762
 21
43.321
  0
LINE
  8
0
 10
29.25
 11
28.722
 20
43.321
 21
42.929
  0
LINE
  8
0
 10
28.722
 11
28.158
 20
42.929
 21
42.591
  0
LINE
  8
0
 10
28.158
 11
27.564
 20
42.591
 21
42.31
  0
LINE
  8
0
 10
27.564
 11
26.945
 20
42.31
 21
42.088
  0
LINE
  8
0
 10
26.945
 11
26.307
 20
42.088
 21
41.929
  0
LINE
  8
0
 10
26.307
 11
25.657
 20
41.929
 21
41.832
  0
LINE
  8
0
 10
25.657
 11
25
 20
41.832
 21
41.8
  0
LINE
  8
0
 10
25
 11
24.343
 20
41.8
 21
41.832
  0
LINE
  8
0
 10
24.343
 11
23.693
 20
41.832
 21
41.929
  0
LINE
  8
0
 10
23.693
 11
23.055
 20
41.929
 21
42.088
  0
LINE
  8
0
 10
23.055
 11
22.436
 20
42.088
 21
42.31
  0
LINE
  8
0
 10
22.436
 11
21.842
 20
42.31
 21
42.591
  0
LINE
  8
0
 10
21.842
 11
21.278
 20
42.591
 21
42.929
  0
LINE
  8
0
 10
21.278
 11
20.75
 20
42.929
 21
43.321
  0
LINE
  8
0
 10
20.75
 11
20.262
 20
43.321
 21
43.762
  0
LINE
  8
0
 10
20.262
 11
19.821
 20
43.762
 21
44.25
  0
LINE
  8
0
 10
19.821
 11
19.429
 20
44.25
 21
44.778
  0
LINE
  8
0
 10
19.429
 11
19.091
 20
44.778
 21
45.342
  0
LINE
  8
0
 10
19.091
 11
18.81
 20
45.342
 21
45.936
  0
LINE
  8
0
 10
18.81
 11
18.589
 20
45.936
 21
46.555
  0
LINE
  8
0
 10
18.589
 11
18.429
 20
46.555
 21
47.193
  0
LINE
  8
0
 10
18.429
 11
18.332
 20
47.193
 21
47.843
  0
LINE
  8
0
 10
18.332
 11
18.3
 20
47.843
 21
48.5
  0
LINE
  8
0
 10
27.5
 11
27.5
 20
-37.5
 21
-22.5
  0
LINE
  8
0
 10
27.5
 11
27.881
 20
-22.5
 21
-20.587
  0
LINE
  8
0
 10
27.881
 11
28.964
 20
-20.587
 21
-18.964
  0
LINE
  8
0
 10
28.964
 11
30.587
 20
-18.964
 21
-17.881
  0
LINE
  8
0
 10
30.587
 11
32.5
 20
-17.881
 21
-17.5
  0
LINE
  8
0
 10
32.5
 11
42.5
 20
-17.5
 21
-17.5
  0
LINE
  8
0
 10
42.5
 11
42.5
 20
-17.5
 21
70
  0
LINE
  8
0
 10
42.5
 11
42.881
 20
70
 21
71.913
  0
LINE
  8
0
 10
42.881
 11
43.964
 20
71.913
 21
73.536
  0
LINE
  8
0
 10
43.964
 11
45.587
 20
73.536
 21
74.619
  0
LINE
  8
0
 10
45.587
 11
47.5
 20
74.619
 21
75
  0
LINE
  8
0
 10
47.5
 11
132.5
 20
75
 21
75
  0
LINE
  8
0
 10
132.5
 11
134.413
 20
75
 21
74.619
  0
LINE
  8
0
 10
134.413
 11
136.036
 20
74.619
 21
73.536
  0
LINE
  8
0
 10
136.036
 11
137.119
 20
73.536
 21
71.913
  0
LINE
  8
0
 10
137.119
 11
137.5
 20
71.913
 21
70
  0
LINE
  8
0
 10
137.5
 11
137.5
 20
70
 21
-17.5
  0
LINE
  8
0
 10
137.5
 11
147.5
 20
-17.5
 21
-17.5
  0
LINE
  8
0
 10
147.5
 11
149.413
 20
-17.5
 21
-17.881
  0
LINE
  8
0
 10
149.413
 11
151.036
 20
-17.881
 21
-18.964
  0
LINE
  8
0
 10
151.036
 11
152.119
 20
-18.964
 21
-20.587
  0
LINE
  8
0
 10
152.119
 11
152.5
 20
-20.587
 21
-22.5
  0
LINE
  8
0
 10
152.5
 11
152.5
 20
-22.5
 21
-37.5
  0
LINE
  8
0
 10
152.5
 11
152.119
 20
-37.5
 21
-39.413
  0
LINE
  8
0
 10
152.119
 11
151.036
 20
-39.413
 21
-41.036
  0
LINE
  8
0
 10
151.036
 11
149.413
 20
-41.036
 21
-42.119
  0
LINE
  8
0
 10
149.413
 11
147.5
 20
-42.119
 21
-42.5
  0
LINE
  8
0
 10
147.5
 11
136.727
 20
-42.5
 21
-42.5
  0
LINE
  8
0
 10
136.727
 11
136.036
 20
-42.5
 21
-43.536
  0
LINE
  8
0
 10
136.036
 11
134.413
 20
-43.536
 21
-44.619
  0
LINE
  8
0
 10
134.413
 11
132.5
 20
-44.619
 21
-45
  0
LINE
  8
0
 10
132.5
 11
47.5
 20
-45
 21
-45
  0
LINE
  8
0
 10
47.5
 11
45.587
 20
-45
 21
-44.619
  0
LINE
  8
0
 10
45.587
 11
43.964
 20
-44.619
 21
-43.536
  0
LINE
  8
0
 10
43.964
 11
43.273
 20
-43.536
 21
-42.5
  0
LINE
  8
0
 10
43.273
 11
32.5
 20
-42.5
 21
-42.5
  0
LINE
  8
0
 10
32.5
 11
30.587
 20
-42.5
 21
-42.119
  0
LINE
  8
0
 10
30.587
 11
28.964
 20
-42.119
 21
-41.036
  0
LINE
  8
0
 10
28.964
 11
27.881
 20
-41.036
 21
-39.413
  0
LINE
  8
0
 10
27.881
 11
27.5
 20
-39.413
 21
-37.5
  0
LINE
  8
0
 10
30.5
 11
30.512
 20
-35
 21
-34.755
  0
LINE
  8
0
 10
30.512
 11
30.548
 20
-34.755
 21
-34.512
  0
LINE
  8
0
 10
30.548
 11
30.608
 20
-34.512
 21
-34.274
  0
LINE
  8
0
 10
30.608
 11
30.69
 20
-34.274
 21
-34.043
  0
LINE
  8
0
 10
30.69
 11
30.795
 20
-34.043
 21
-33.822
  0
LINE
  8
0
 10
30.795
 11
30.921
 20
-33.822
 21
-33.611
  0
LINE
  8
0
 10
30.921
 11
31.067
 20
-33.611
 21
-33.414
  0
LINE
  8
0
 10
31.067
 11
31.232
 20
-33.414
 21
-33.232
  0
LINE
  8
0
 10
31.232
 11
31.414
 20
-33.232
 21
-33.067
  0
LINE
  8
0
 10
31.414
 11
31.611
 20
-33.067
 21
-32.921
  0
LINE
  8
0
 10
31.611
 11
31.822
 20
-32.921
 21
-32.795
  0
LINE
  8
0
 10
31.822
 11
32.043
 20
-32.795
 21
-32.69
  0
LINE
  8
0
 10
32.043
 11
32.274
 20
-32.69
 21
-32.608
  0
LINE
  8
0
 10
32.274
 11
32.512
 20
-32.608
 21
-32.548
  0
LINE
  8
0
 10
32.512
 11
32.755
 20
-32.548
 21
-32.512
  0
LINE
  8
0
 10
32.755
 11
33
 20
-32.512
 21
-32.5
  0
LINE
  8
0
 10
33
 11
33.245
 20
-32.5
 21
-32.512
  0
LINE
  8
0
 10
33.245
 11
33.488
 20
-32.512
 21
-32.548
  0
LINE
  8
0
 10
33.488
 11
33.726
 20
-32.548
 21
-32.608
  0
LINE
  8
0
 10
33.726
 11
33.957
 20
-32.608
 21
-32.69
  0
LINE
  8
0
 10
33.957
 11
34.178
 20
-32.69
 21
-32.795
  0
LINE
  8
0
 10
34.178
 11
34.389
 20
-32.795
 21
-32.921
  0
LINE
  8
0
 10
34.389
 11
34.586
 20
-32.921
 21
-33.067
  0
LINE
  8
0
 10
34.586
 11
34.768
 20
-33.067
 21
-33.232
  0
LINE
  8
0
 10
34.768
 11
34.933
 20
-33.232
 21
-33.414
  0
LINE
  8
0
 10
34.933
 11
35.079
 20
-33.414
 21
-33.611
  0
LINE
  8
0
 10
35.079
 11
35.205
 20
-33.611
 21
-33.822
  0
LINE
  8
0
 10
35.205
 11
35.31
 20
-33.822
 21
-34.043
  0
LINE
  8
0
 10
35.31
 11
35.392
 20
-34.043
 21
-34.274
  0
LINE
  8
0
 10
35.392
 11
35.452
 20
-34.274
 21
-34.512
  0
LINE
  8
0
 10
35.452
 11
35.488
 20
-34.512
 21
-34.755
  0
LINE
  8
0
 10
35.488
 11
35.5
 20
-34.755
 21
-35
  0
LINE
  8
0
 10
35.5
 11
35.488
 20
-35
 21
-35.245
  0
LINE
  8
0
 10
35.488
 11
35.452
 20
-35.245
 21
-35.488
  0
LINE
  8
0
 10
35.452
 11
35.392
 20
-35.488
 21
-35.726
  0
LINE
  8
0
 10
35.392
 11
35.31
 20
-35.726
 21
-35.957
  0
LINE
  8
0
 10
35.31
 11
35.205
 20
-35.957
 21
-36.178
  0
LINE
  8
0
 10
35.205
 11
35.079
 20
-36.178
 21
-36.389
  0
LINE
  8
0
 10
35.079
 11
34.933
 20
-36.389
 21
-36.586
  0
LINE
  8
0
 10
34.933
 11
34.768
 20
-36.586
 21
-36.768
  0
LINE
  8
0
 10
34.768
 11
34.586
 20
-36.768
 21
-36.933
  0
LINE
  8
0
 10
34.586
 11
34.389
 20
-36.933
 21
-37.079
  0
LINE
  8
0
 10
34.389
 11
34.178
 20
-37.079
 21
-37.205
  0
LINE
  8
0
 10
34.178
 11
33.957
 20
-37.205
 21
-37.31
  0
LINE
  8
0
 10
33.957
 11
33.726
 20
-37.31
 21
-37.392
  0
LINE
  8
0
 10
33.726
 11
33.488
 20
-37.392
 21
-37.452
  0
LINE
  8
0
 10
33.488
 11
33.245
 20
-37.452
 21
-37.488
  0
LINE
  8
0
 10
33.245
 11
33
 20
-37.488
 21
-37.5
  0
LINE
  8
0
 10
33
 11
32.755
 20
-37.5
 21
-37.488
  0
LINE
  8
0
 10
32.755
 11
32.512
 20
-37.488
 21
-37.452
  0
LINE
  8
0
 10
32.512
 11
32.274
 20
-37.452
 21
-37.392
  0
LINE
  8
0
 10
32.274
 11
32.043
 20
-37.392
 21
-37.31
  0
LINE
  8
0
 10
32.043
 11
31.822
 20
-37.31
 21
-37.205
  0
LINE
  8
0
 10
31.822
 11
31.611
 20
-37.205
 21
-37.079
  0
LINE
  8
0
 10
31.611
 11
31.414
 20
-37.079
 21
-36.933
  0
LINE
  8
0
 10
31.414
 11
31.232
 20
-36.933
 21
-36.768
  0
LINE
  8
0
 10
31.232
 11
31.067
 20
-36.768
 21
-36.586
  0
LINE
  8
0
 10
31.067
 11
30.921
 20
-36.586
 21
-36.389
  0
LINE
  8
0
 10
30.921
 11
30.795
 20
-36.389
 21
-36.178
  0
LINE
  8
0
 10
30.795
 11
30.69
 20
-36.178
 21
-35.957
  0
LINE
  8
0
 10
30.69
 11
30.608
 20
-35.957
 21
-35.726
  0
LINE
  8
0
 10
30.608
 11
30.548
 20
-35.726
 21
-35.488
  0
LINE
  8
0
 10
30.548
 11
30.512
 20
-35.488
 21
-35.245
  0
LINE
  8
0
 10
30.512
 11
30.5
 20
-35.245
 21
-35
  0
LINE
  8
0
 10
30.5
 11
30.512
 20
-27
 21
-26.755
  0
LINE
  8
0
 10
30.512
 11
30.548
 20
-26.755
 21
-26.512
  0
LINE
  8
0
 10
30.548
 11
30.608
 20
-26.512
 21
-26.274
  0
LINE
  8
0
 10
30.608
 11
30.69
 20
-26.274
 21
-26.043
  0
LINE
  8
0
 10
30.69
 11
30.795
 20
-26.043
 21
-25.822
  0
LINE
  8
0
 10
30.795
 11
30.921
 20
-25.822
 21
-25.611
  0
LINE
  8
0
 10
30.921
 11
31.067
 20
-25.611
 21
-25.414
  0
LINE
  8
0
 10
31.067
 11
31.232
 20
-25.414
 21
-25.232
  0
LINE
  8
0
 10
31.232
 11
31.414
 20
-25.232
 21
-25.067
  0
LINE
  8
0
 10
31.414
 11
31.611
 20
-25.067
 21
-24.921
  0
LINE
  8
0
 10
31.611
 11
31.822
 20
-24.921
 21
-24.795
  0
LINE
  8
0
 10
31.822
 11
32.043
 20
-24.795
 21
-24.69
  0
LINE
  8
0
 10
32.043
 11
32.274
 20
-24.69
 21
-24.608
  0
LINE
  8
0
 10
32.274
 11
32.512
 20
-24.608
 21
-24.548
  0
LINE
  8
0
 10
32.512
 11
32.755
 20
-24.548
 21
-24.512
  0
LINE
  8
0
 10
32.755
 11
33
 20
-24.512
 21
-24.5
  0
LINE
  8
0
 10
33
 11
33.245
 20
-24.5
 21
-24.512
  0
LINE
  8
0
 10
33.245
 11
33.488
 20
-24.512
 21
-24.548
  0
LINE
  8
0
 10
33.488
 11
33.726
 20
-24.548
 21
-24.608
  0
LINE
  8
0
 10
33.726
 11
33.957
 20
-24.608
 21
-24.69
  0
LINE
  8
0
 10
33.957
 11
34.178
 20
-24.69
 21
-24.795
  0
LINE
  8
0
 10
34.178
 11
34.389
 20
-24.795
 21
-24.921
  0
LINE
  8
0
 10
34.389
 11
34.586
 20
-24.921
 21
-25.067
  0
LINE
  8
0
 10
34.586
 11
34.768
 20
-25.067
 21
-25.232
  0
LINE
  8
0
 10
34.768
 11
34.933
 20
-25.232
 21
-25.414
  0
LINE
  8
0
 10
34.933
 11
35.079
 20
-25.414
 21
-25.611
  0
LINE
  8
0
 10
35.079
 11
35.205
 20
-25.611
 21
-25.822
  0
LINE
  8
0
 10
35.205
 11
35.31
 20
-25.822
 21
-26.043
  0
LINE
  8
0
 10
35.31
 11
35.392
 20
-26.043
 21
-26.274
  0
LINE
  8
0
 10
35.392
 11
35.452
 20
-26.274
 21
-26.512
  0
LINE
  8
0
 10
35.452
 11
35.488
 20
-26.512
 21
-26.755
  0
LINE
  8
0
 10
35.488
 11
35.5
 20
-26.755
 21
-27
  0
LINE
  8
0
 10
35.5
 11
35.488
 20
-27
 21
-27.245
  0
LINE
  8
0
 10
35.488
 11
35.452
 20
-27.245
 21
-27.488
  0
LINE
  8
0
 10
35.452
 11
35.392
 20
-27.488
 21
-27.726
  0
LINE
  8
0
 10
35.392
 11
35.31
 20
-27.726
 21
-27.957
  0
LINE
  8
0
 10
35.31
 11
35.205
 20
-27.957
 21
-28.178
  0
LINE
  8
0
 10
35.205
 11
35.079
 20
-28.178
 21
-28.389
  0
LINE
  8
0
 10
35.079
 11
34.933
 20
-28.389
 21
-28.586
  0
LINE
  8
0
 10
34.933
 11
34.768
 20
-28.586
 21
-28.768
  0
LINE
  8
0
 10
34.768
 11
34.586
 20
-28.768
 21
-28.933
  0
LINE
  8
0
 10
34.586
 11
34.389
 20
-28.933
 21
-29.079
  0
LINE
  8
0
 10
34.389
 11
34.178
 20
-29.079
 21
-29.205
  0
LINE
  8
0
 10
34.178
 11
33.957
 20
-29.205
 21
-29.31
  0
LINE
  8
0
 10
33.957
 11
33.726
 20
-29.31
 21
-29.392
  0
LINE
  8
0
 10
33.726
 11
33.488
 20
-29.392
 21
-29.452
  0
LINE
  8
0
 10
33.488
 11
33.245
 20
-29.452
 21
-29.488
  0
LINE
  8
0
 10
33.245
 11
33
 20
-29.488
 21
-29.5
  0
LINE
  8
0
 10
33
 11
32.755
 20
-29.5
 21
-29.488
  0
LINE
  8
0
 10
32.755
 11
32.512
 20
-29.488
 21
-29.452
  0
LINE
  8
0
 10
32.512
 11
32.274
 20
-29.452
 21
-29.392
  0
LINE
  8
0
 10
32.274
 11
32.043
 20
-29.392
 21
-29.31
  0
LINE
  8
0
 10
32.043
 11
31.822
 20
-29.31
 21
-29.205
  0
LINE
  8
0
 10
31.822
 11
31.611
 20
-29.205
 21
-29.079
  0
LINE
  8
0
 10
31.611
 11
31.414
 20
-29.079
 21
-28.933
  0
LINE
  8
0
 10
31.414
 11
31.232
 20
-28.933
 21
-28.768
  0
LINE
  8
0
 10
31.232
 11
31.067
 20
-28.768
 21
-28.586
  0
LINE
  8
0
 10
31.067
 11
30.921
 20
-28.586
 21
-28.389
  0
LINE
  8
0
 10
30.921
 11
30.795
 20
-28.389
 21
-28.178
  0
LINE
  8
0
 10
30.795
 11
30.69
 20
-28.178
 21
-27.957
  0
LINE
  8
0
 10
30.69
 11
30.608
 20
-27.957
 21
-27.726
  0
LINE
  8
0
 10
30.608
 11
30.548
 20
-27.726
 21
-27.488
  0
LINE
  8
0
 10
30.548
 11
30.512
 20
-27.488
 21
-27.245
  0
LINE
  8
0
 10
30.512
 11
30.5
 20
-27.245
 21
-27
  0
LINE
  8
0
 10
38.5
 11
38.512
 20
-31
 21
-30.755
  0
LINE
  8
0
 10
38.512
 11
38.548
 20
-30.755
 21
-30.512
  0
LINE
  8
0
 10
38.548
 11
38.608
 20
-30.512
 21
-30.274
  0
LINE
  8
0
 10
38.608
 11
38.69
 20
-30.274
 21
-30.043
  0
LINE
  8
0
 10
38.69
 11
38.795
 20
-30.043
 21
-29.822
  0
LINE
  8
0
 10
38.795
 11
38.921
 20
-29.822
 21
-29.611
  0
LINE
  8
0
 10
38.921
 11
39.067
 20
-29.611
 21
-29.414
  0
LINE
  8
0
 10
39.067
 11
39.232
 20
-29.414
 21
-29.232
  0
LINE
  8
0
 10
39.232
 11
39.414
 20
-29.232
 21
-29.067
  0
LINE
  8
0
 10
39.414
 11
39.611
 20
-29.067
 21
-28.921
  0
LINE
  8
0
 10
39.611
 11
39.822
 20
-28.921
 21
-28.795
  0
LINE
  8
0
 10
39.822
 11
40.043
 20
-28.795
 21
-28.69
  0
LINE
  8
0
 10
40.043
 11
40.274
 20
-28.69
 21
-28.608
  0
LINE
  8
0
 10
40.274
 11
40.512
 20
-28.608
 21
-28.548
  0
LINE
  8
0
 10
40.512
 11
40.755
 20
-28.548
 21
-28.512
  0
LINE
  8
0
 10
40.755
 11
41
 20
-28.512
 21
-28.5
  0
LINE
  8
0
 10
41
 11
41.245
 20
-28.5
 21
-28.512
  0
LINE
  8
0
 10
41.245
 11
41.488
 20
-28.512
 21
-28.548
  0
LINE
  8
0
 10
41.488
 11
41.726
 20
-28.548
 21
-28.608
  0
LINE
  8
0
 10
41.726
 11
41.957
 20
-28.608
 21
-28.69
  0
LINE
  8
0
 10
41.957
 11
42.178
 20
-28.69
 21
-28.795
  0
LINE
  8
0
 10
42.178
 11
42.389
 20
-28.795
 21
-28.921
  0
LINE
  8
0
 10
42.389
 11
42.586
 20
-28.921
 21
-29.067
  0
LINE
  8
0
 10
42.586
 11
42.768
 20
-29.067
 21
-29.232
  0
LINE
  8
0
 10
42.768
 11
42.933
 20
-29.232
 21
-29.414
  0
LINE
  8
0
 10
42.933
 11
43.079
 20
-29.414
 21
-29.611
  0
LINE
  8
0
 10
43.079
 11
43.205
 20
-29.611
 21
-29.822
  0
LINE
  8
0
 10
43.205
 11
43.31
 20
-29.822
 21
-30.043
  0
LINE
  8
0
 10
43.31
 11
43.392
 20
-30.043
 21
-30.274
  0
LINE
  8
0
 10
43.392
 11
43.452
 20
-30.274
 21
-30.512
  0
LINE
  8
0
 10
43.452
 11
43.488
 20
-30.512
 21
-30.755
  0
LINE
  8
0
 10
43.488
 11
43.5
 20
-30.755
 21
-31
  0
LINE
  8
0
 10
43.5
 11
43.488
 20
-31
 21
-31.245
  0
LINE
  8
0
 10
43.488
 11
43.452
 20
-31.245
 21
-31.488
  0
LINE
  8
0
 10
43.452
 11
43.392
 20
-31.488
 21
-31.726
  0
LINE
  8
0
 10
43.392
 11
43.31
 20
-31.726
 21
-31.957
  0
LINE
  8
0
 10
43.31
 11
43.205
 20
-31.957
 21
-32.178
  0
LINE
  8
0
 10
43.205
 11
43.079
 20
-32.178
 21
-32.389
  0
LINE
  8
0
 10
43.079
 11
42.933
 20
-32.389
 21
-32.586
  0
LINE
  8
0
 10
42.933
 11
42.768
 20
-32.586
 21
-32.768
  0
LINE
  8
0
 10
42.768
 11
42.586
 20
-32.768
 21
-32.933
  0
LINE
  8
0
 10
42.586
 11
42.389
 20
-32.933
 21
-33.079
  0
LINE
  8
0
 10
42.389
 11
42.178
 20
-33.079
 21
-33.205
  0
LINE
  8
0
 10
42.178
 11
41.957
 20
-33.205
 21
-33.31
  0
LINE
  8
0
 10
41.957
 11
41.726
 20
-33.31
 21
-33.392
  0
LINE
  8
0
 10
41.726
 11
41.488
 20
-33.392
 21
-33.452
  0
LINE
  8
0
 10
41.488
 11
41.245
 20
-33.452
 21
-33.488
  0
LINE
  8
0
 10
41.245
 11
41
 20
-33.488
 21
-33.5
  0
LINE
  8
0
 10
41
 11
40.755
 20
-33.5
 21
-33.488
  0
LINE
  8
0
 10
40.755
 11
40.512
 20
-33.488
 21
-33.452
  0
LINE
  8
0
 10
40.512
 11
40.274
 20
-33.452
 21
-33.392
  0
LINE
  8
0
 10
40.274
 11
40.043
 20
-33.392
 21
-33.31
  0
LINE
  8
0
 10
40.043
 11
39.822
 20
-33.31
 21
-33.205
  0
LINE
  8
0
 10
39.822
 11
39.611
 20
-33.205
 21
-33.079
  0
LINE
  8
0
 10
39.611
 11
39.414
 20
-33.079
 21
-32.933
  0
LINE
  8
0
 10
39.414
 11
39.232
 20
-32.933
 21
-32.768
  0
LINE
  8
0
 10
39.232
 11
39.067
 20
-32.768
 21
-32.586
  0
LINE
  8
0
 10
39.067
 11
38.921
 20
-32.586
 21
-32.389
  0
LINE
  8
0
 10
38.921
 11
38.795
 20
-32.389
 21
-32.178
  0
LINE
  8
0
 10
38.795
 11
38.69
 20
-32.178
 21
-31.957
  0
LINE
  8
0
 10
38.69
 11
38.608
 20
-31.957
 21
-31.726
  0
LINE
  8
0
 10
38.608
 11
38.548
 20
-31.726
 21
-31.488
  0
LINE
  8
0
 10
38.548
 11
38.512
 20
-31.488
 21
-31.245
  0
LINE
  8
0
 10
38.512
 11
38.5
 20
-31.245
 21
-31
  0
LINE
  8
0
 10
45
 11
45
 20
20
 21
40
  0
LINE
  8
0
 10
45
 11
48
 20
40
 21
40
  0
LINE
  8
0
 10
48
 11
48
 20
40
 21
20
  0
LINE
  8
0
 10
48
 11
45
 20
20
 21
20
  0
LINE
  8
0
 10
46
 11
46.01
 20
-40
 21
-39.804
  0
LINE
  8
0
 10
46.01
 11
46.038
 20
-39.804
 21
-39.61
  0
LINE
  8
0
 10
46.038
 11
46.086
 20
-39.61
 21
-39.419
  0
LINE
  8
0
 10
46.086
 11
46.152
 20
-39.419
 21
-39.235
  0
LINE
  8
0
 10
46.152
 11
46.236
 20
-39.235
 21
-39.057
  0
LINE
  8
0
 10
46.236
 11
46.337
 20
-39.057
 21
-38.889
  0
LINE
  8
0
 10
46.337
 11
46.454
 20
-38.889
 21
-38.731
  0
LINE
  8
0
 10
46.454
 11
46.586
 20
-38.731
 21
-38.586
  0
LINE
  8
0
 10
46.586
 11
46.731
 20
-38.586
 21
-38.454
  0
LINE
  8
0
 10
46.731
 11
46.889
 20
-38.454
 21
-38.337
  0
LINE
  8
0
 10
46.889
 11
47.057
 20
-38.337
 21
-38.236
  0
LINE
  8
0
 10
47.057
 11
47.235
 20
-38.236
 21
-38.152
  0
LINE
  8
0
 10
47.235
 11
47.419
 20
-38.152
 21
-38.086
  0
LINE
  8
0
 10
47.419
 11
47.61
 20
-38.086
 21
-38.038
  0
LINE
  8
0
 10
47.61
 11
47.804
 20
-38.038
 21
-38.01
  0
LINE
  8
0
 10
47.804
 11
48
 20
-38.01
 21
-38
  0
LINE
  8
0
 10
48
 11
48.196
 20
-38
 21
-38.01
  0
LINE
  8
0
 10
48.196
 11
48.39
 20
-38.01
 21
-38.038
  0
LINE
  8
0
 10
48.39
 11
48.581
 20
-38.038
 21
-38.086
  0
LINE
  8
0
 10
48.581
 11
48.765
 20
-38.086
 21
-38.152
  0
LINE
  8
0
 10
48.765
 11
48.943
 20
-38.152
 21
-38.236
  0
LINE
  8
0
 10
48.943
 11
49.111
 20
-38.236
 21
-38.337
  0
LINE
  8
0
 10
49.111
 11
49.269
 20
-38.337
 21
-38.454
  0
LINE
  8
0
 10
49.269
 11
49.414
 20
-38.454
 21
-38.586
  0
LINE
  8
0
 10
49.414
 11
49.546
 20
-38.586
 21
-38.731
  0
LINE
  8
0
 10
49.546
 11
49.663
 20
-38.731
 21
-38.889
  0
LINE
  8
0
 10
49.663
 11
49.764
 20
-38.889
 21
-39.057
  0
LINE
  8
0
 10
49.764
 11
49.848
 20
-39.057
 21
-39.235
  0
LINE
  8
0
 10
49.848
 11
49.914
 20
-39.235
 21
-39.419
  0
LINE
  8
0
 10
49.914
 11
49.962
 20
-39.419
 21
-39.61
  0
LINE
  8
0
 10
49.962
 11
49.99
 20
-39.61
 21
-39.804
  0
LINE
  8
0
 10
49.99
 11
50
 20
-39.804
 21
-40
  0
LINE
  8
0
 10
50
 11
49.99
 20
-40
 21
-40.196
  0
LINE
  8
0
 10
49.99
 11
49.962
 20
-40.196
 21
-40.39
  0
LINE
  8
0
 10
49.962
 11
49.914
 20
-40.39
 21
-40.581
  0
LINE
  8
0
 10
49.914
 11
49.848
 20
-40.581
 21
-40.765
  0
LINE
  8
0
 10
49.848
 11
49.764
 20
-40.765
 21
-40.943
  0
LINE
  8
0
 10
49.764
 11
49.663
 20
-40.943
 21
-41.111
  0
LINE
  8
0
 10
49.663
 11
49.546
 20
-41.111
 21
-41.269
  0
LINE
  8
0
 10
49.546
 11
49.414
 20
-41.269
 21
-41.414
  0
LINE
  8
0
 10
49.414
 11
49.269
 20
-41.414
 21
-41.546
  0
LINE
  8
0
 10
49.269
 11
49.111
 20
-41.546
 21
-41.663
  0
LINE
  8
0
 10
49.111
 11
48.943
 20
-41.663
 21
-41.764
  0
LINE
  8
0
 10
48.943
 11
48.765
 20
-41.764
 21
-41.848
  0
LINE
  8
0
 10
48.765
 11
48.581
 20
-41.848
 21
-41.914
  0
LINE
  8
0
 10
48.581
 11
48.39
 20
-41.914
 21
-41.962
  0
LINE
  8
0
 10
48.39
 11
48.196
 20
-41.962
 21
-41.99
  0
LINE
  8
0
 10
48.196
 11
48
 20
-41.99
 21
-42
  0
LINE
  8
0
 10
48
 11
47.804
 20
-42
 21
-41.99
  0
LINE
  8
0
 10
47.804
 11
47.61
 20
-41.99
 21
-41.962
  0
LINE
  8
0
 10
47.61
 11
47.419
 20
-41.962
 21
-41.914
  0
LINE
  8
0
 10
47.419
 11
47.235
 20
-41.914
 21
-41.848
  0
LINE
  8
0
 10
47.235
 11
47.057
 20
-41.848
 21
-41.764
  0
LINE
  8
0
 10
47.057
 11
46.889
 20
-41.764
 21
-41.663
  0
LINE
  8
0
 10
46.889
 11
46.731
 20
-41.663
 21
-41.546
  0
LINE
  8
0
 10
46.731
 11
46.586
 20
-41.546
 21
-41.414
  0
LINE
  8
0
 10
46.586
 11
46.454
 20
-41.414
 21
-41.269
  0
LINE
  8
0
 10
46.454
 11
46.337
 20
-41.269
 21
-41.111
  0
LINE
  8
0
 10
46.337
 11
46.236
 20
-41.111
 21
-40.943
  0
LINE
  8
0
 10
46.236
 11
46.152
 20
-40.943
 21
-40.765
  0
LINE
  8
0
 10
46.152
 11
46.086
 20
-40.765
 21
-40.581
  0
LINE
  8
0
 10
46.086
 11
46.038
 20
-40.581
 21
-40.39
  0
LINE
  8
0
 10
46.038
 11
46.01
 20
-40.39
 21
-40.196
  0
LINE
  8
0
 10
46.01
 11
46
 20
-40.196
 21
-40
  0
LINE
  8
0
 10
46
 11
46.01
 20
70
 21
70.196
  0
LINE
  8
0
 10
46.01
 11
46.038
 20
70.196
 21
70.39
  0
LINE
  8
0
 10
46.038
 11
46.086
 20
70.39
 21
70.581
  0
LINE
  8
0
 10
46.086
 11
46.152
 20
70.581
 21
70.765
  0
LINE
  8
0
 10
46.152
 11
46.236
 20
70.765
 21
70.943
  0
LINE
  8
0
 10
46.236
 11
46.337
 20
70.943
 21
71.111
  0
LINE
  8
0
 10
46.337
 11
46.454
 20
71.111
 21
71.269
  0
LINE
  8
0
 10
46.454
 11
46.586
 20
71.269
 21
71.414
  0
LINE
  8
0
 10
46.586
 11
46.731
 20
71.414
 21
71.546
  0
LINE
  8
0
 10
46.731
 11
46.889
 20
71.546
 21
71.663
  0
LINE
  8
0
 10
46.889
 11
47.057
 20
71.663
 21
71.764
  0
LINE
  8
0
 10
47.057
 11
47.235
 20
71.764
 21
71.848
  0
LINE
  8
0
 10
47.235
 11
47.419
 20
71.848
 21
71.914
  0
LINE
  8
0
 10
47.419
 11
47.61
 20
71.914
 21
71.962
  0
LINE
  8
0
 10
47.61
 11
47.804
 20
71.962
 21
71.99
  0
LINE
  8
0
 10
47.804
 11
48
 20
71.99
 21
72
  0
LINE
  8
0
 10
48
 11
48.196
 20
72
 21
71.99
  0
LINE
  8
0
 10
48.196
 11
48.39
 20
71.99
 21
71.962
  0
LINE
  8
0
 10
48.39
 11
48.581
 20
71.962
 21
71.914
  0
LINE
  8
0
 10
48.581
 11
48.765
 20
71.914
 21
71.848
  0
LINE
  8
0
 10
48.765
 11
48.943
 20
71.848
 21
71.764
  0
LINE
  8
0
 10
48.943
 11
49.111
 20
71.764
 21
71.663
  0
LINE
  8
0
 10
49.111
 11
49.269
 20
71.663
 21
71.546
  0
LINE
  8
0
 10
49.269
 11
49.414
 20
71.546
 21
71.414
  0
LINE
  8
0
 10
49.414
 11
49.546
 20
71.414
 21
71.269
  0
LINE
  8
0
 10
49.546
 11
49.663
 20
71.269
 21
71.111
  0
LINE
  8
0
 10
49.663
 11
49.764
 20
71.111
 21
70.943
  0
LINE
  8
0
 10
49.764
 11
49.848
 20
70.943
 21
70.765
  0
LINE
  8
0
 10
49.848
 11
49.914
 20
70.765
 21
70.581
  0
LINE
  8
0
 10
49.914
 11
49.962
 20
70.581
 21
70.39
  0
LINE
  8
0
 10
49.962
 11
49.99
 20
70.39
 21
70.196
  0
LINE
  8
0
 10
49.99
 11
50
 20
70.196
 21
70
  0
LINE
  8
0
 10
50
 11
49.99
 20
70
 21
69.804
  0
LINE
  8
0
 10
49.99
 11
49.962
 20
69.804
 21
69.61
  0
LINE
  8
0
 10
49.962
 11
49.914
 20
69.61
 21
69.419
  0
LINE
  8
0
 10
49.914
 11
49.848
 20
69.419
 21
69.235
  0
LINE
  8
0
 10
49.848
 11
49.764
 20
69.235
 21
69.057
  0
LINE
  8
0
 10
49.764
 11
49.663
 20
69.057
 21
68.889
  0
LINE
  8
0
 10
49.663
 11
49.546
 20
68.889
 21
68.731
  0
LINE
  8
0
 10
49.546
 11
49.414
 20
68.731
 21
68.586
  0
LINE
  8
0
 10
49.414
 11
49.269
 20
68.586
 21
68.454
  0
LINE
  8
0
 10
49.269
 11
49.111
 20
68.454
 21
68.337
  0
LINE
  8
0
 10
49.111
 11
48.943
 20
68.337
 21
68.236
  0
LINE
  8
0
 10
48.943
 11
48.765
 20
68.236
 21
68.152
  0
LINE
  8
0
 10
48.765
 11
48.581
 20
68.152
 21
68.086
  0
LINE
  8
0
 10
48.581
 11
48.39
 20
68.086
 21
68.038
  0
LINE
  8
0
 10
48.39
 11
48.196
 20
68.038
 21
68.01
  0
LINE
  8
0
 10
48.196
 11
48
 20
68.01
 21
68
  0
LINE
  8
0
 10
48
 11
47.804
 20
68
 21
68.01
  0
LINE
  8
0
 10
47.804
 11
47.61
 20
68.01
 21
68.038
  0
LINE
  8
0
 10
47.61
 11
47.419
 20
68.038
 21
68.086
  0
LINE
  8
0
 10
47.419
 11
47.235
 20
68.086
 21
68.152
  0
LINE
  8
0
 10
47.235
 11
47.057
 20
68.152
 21
68.236
  0
LINE
  8
0
 10
47.057
 11
46.889
 20
68.236
 21
68.337
  0
LINE
  8
0
 10
46.889
 11
46.731
 20
68.337
 21
68.454
  0
LINE
  8
0
 10
46.731
 11
46.586
 20
68.454
 21
68.586
  0
LINE
  8
0
 10
46.586
 11
46.454
 20
68.586
 21
68.731
  0
LINE
  8
0
 10
46.454
 11
46.337
 20
68.731
 21
68.889
  0
LINE
  8
0
 10
46.337
 11
46.236
 20
68.889
 21
69.057
  0
LINE
  8
0
 10
46.236
 11
46.152
 20
69.057
 21
69.235
  0
LINE
  8
0
 10
46.152
 11
46.086
 20
69.235
 21
69.419
  0
LINE
  8
0
 10
46.086
 11
46.038
 20
69.419
 21
69.61
  0
LINE
  8
0
 10
46.038
 11
46.01
 20
69.61
 21
69.804
  0
LINE
  8
0
 10
46.01
 11
46
 20
69.804
 21
70
  0
LINE
  8
0
 10
52.5
 11
52.512
 20
70
 21
70.245
  0
LINE
  8
0
 10
52.512
 11
52.548
 20
70.245
 21
70.488
  0
LINE
  8
0
 10
52.548
 11
52.608
 20
70.488
 21
70.726
  0
LINE
  8
0
 10
52.608
 11
52.69
 20
70.726
 21
70.957
  0
LINE
  8
0
 10
52.69
 11
52.795
 20
70.957
 21
71.178
  0
LINE
  8
0
 10
52.795
 11
52.921
 20
71.178
 21
71.389
  0
LINE
  8
0
 10
52.921
 11
53.067
 20
71.389
 21
71.586
  0
LINE
  8
0
 10
53.067
 11
53.232
 20
71.586
 21
71.768
  0
LINE
  8
0
 10
53.232
 11
53.414
 20
71.768
 21
71.933
  0
LINE
  8
0
 10
53.414
 11
53.611
 20
71.933
 21
72.079
  0
LINE
  8
0
 10
53.611
 11
53.822
 20
72.079
 21
72.205
  0
LINE
  8
0
 10
53.822
 11
54.043
 20
72.205
 21
72.31
  0
LINE
  8
0
 10
54.043
 11
54.274
 20
72.31
 21
72.392
  0
LINE
  8
0
 10
54.274
 11
54.512
 20
72.392
 21
72.452
  0
LINE
  8
0
 10
54.512
 11
54.755
 20
72.452
 21
72.488
  0
LINE
  8
0
 10
54.755
 11
55
 20
72.488
 21
72.5
  0
LINE
  8
0
 10
55
 11
55.245
 20
72.5
 21
72.488
  0
LINE
  8
0
 10
55.245
 11
55.488
 20
72.488
 21
72.452
  0
LINE
  8
0
 10
55.488
 11
55.726
 20
72.452
 21
72.392
  0
LINE
  8
0
 10
55.726
 11
55.957
 20
72.392
 21
72.31
  0
LINE
  8
0
 10
55.957
 11
56.178
 20
72.31
 21
72.205
  0
LINE
  8
0
 10
56.178
 11
56.389
 20
72.205
 21
72.079
  0
LINE
  8
0
 10
56.389
 11
56.586
 20
72.079
 21
71.933
  0
LINE
  8
0
 10
56.586
 11
56.768
 20
71.933
 21
71.768
  0
LINE
  8
0
 10
56.768
 11
56.933
 20
71.768
 21
71.586
  0
LINE
  8
0
 10
56.933
 11
57.079
 20
71.586
 21
71.389
  0
LINE
  8
0
 10
57.079
 11
57.205
 20
71.389
 21
71.178
  0
LINE
  8
0
 10
57.205
 11
57.31
 20
71.178
 21
70.957
  0
LINE
  8
0
 10
57.31
 11
57.392
 20
70.957
 21
70.726
  0
LINE
  8
0
 10
57.392
 11
57.452
 20
70.726
 21
70.488
  0
LINE
  8
0
 10
57.452
 11
57.488
 20
70.488
 21
70.245
  0
LINE
  8
0
 10
57.488
 11
57.5
 20
70.245
 21
70
  0
LINE
  8
0
 10
57.5
 11
57.488
 20
70
 21
69.755
  0
LINE
  8
0
 10
57.488
 11
57.452
 20
69.755
 21
69.512
  0
LINE
  8
0
 10
57.452
 11
57.392
 20
69.512
 21
69.274
  0
LINE
  8
0
 10
57.392
 11
57.31
 20
69.274
 21
69.043
  0
LINE
  8
0
 10
57.31
 11
57.205
 20
69.043
 21
68.822
  0
LINE
  8
0
 10
57.205
 11
57.079
 20
68.822
 21
68.611
  0
LINE
  8
0
 10
57.079
 11
56.933
 20
68.611
 21
68.414
  0
LINE
  8
0
 10
56.933
 11
56.768
 20
68.414
 21
68.232
  0
LINE
  8
0
 10
56.768
 11
56.586
 20
68.232
 21
68.067
  0
LINE
  8
0
 10
56.586
 11
56.389
 20
68.067
 21
67.921
  0
LINE
  8
0
 10
56.389
 11
56.178
 20
67.921
 21
67.795
  0
LINE
  8
0
 10
56.178
 11
55.957
 20
67.795
 21
67.69
  0
LINE
  8
0
 10
55.957
 11
55.726
 20
67.69
 21
67.608
  0
LINE
  8
0
 10
55.726
 11
55.488
 20
67.608
 21
67.548
  0
LINE
  8
0
 10
55.488
 11
55.245
 20
67.548
 21
67.512
  0
LINE
  8
0
 10
55.245
 11
55
 20
67.512
 21
67.5
  0
LINE
  8
0
 10
55
 11
54.755
 20
67.5
 21
67.512
  0
LINE
  8
0
 10
54.755
 11
54.512
 20
67.512
 21
67.548
  0
LINE
  8
0
 10
54.512
 11
54.274
 20
67.548
 21
67.608
  0
LINE
  8
0
 10
54.274
 11
54.043
 20
67.608
 21
67.69
  0
LINE
  8
0
 10
54.043
 11
53.822
 20
67.69
 21
67.795
  0
LINE
  8
0
 10
53.822
 11
53.611
 20
67.795
 21
67.921
  0
LINE
  8
0
 10
53.611
 11
53.414
 20
67.921
 21
68.067
  0
LINE
  8
0
 10
53.414
 11
53.232
 20
68.067
 21
68.232
  0
LINE
  8
0
 10
53.232
 11
53.067
 20
68.232
 21
68.414
  0
LINE
  8
0
 10
53.067
 11
52.921
 20
68.414
 21
68.611
  0
LINE
  8
0
 10
52.921
 11
52.795
 20
68.611
 21
68.822
  0
LINE
  8
0
 10
52.795
 11
52.69
 20
68.822
 21
69.043
  0
LINE
  8
0
 10
52.69
 11
52.608
 20
69.043
 21
69.274
  0
LINE
  8
0
 10
52.608
 11
52.548
 20
69.274
 21
69.512
  0
LINE
  8
0
 10
52.548
 11
52.512
 20
69.512
 21
69.755
  0
LINE
  8
0
 10
52.512
 11
52.5
 20
69.755
 21
70
  0
LINE
  8
0
 10
56.5
 11
56.512
 20
64
 21
64.245
  0
LINE
  8
0
 10
56.512
 11
56.548
 20
64.245
 21
64.488
  0
LINE
  8
0
 10
56.548
 11
56.608
 20
64.488
 21
64.726
  0
LINE
  8
0
 10
56.608
 11
56.69
 20
64.726
 21
64.957
  0
LINE
  8
0
 10
56.69
 11
56.795
 20
64.957
 21
65.178
  0
LINE
  8
0
 10
56.795
 11
56.921
 20
65.178
 21
65.389
  0
LINE
  8
0
 10
56.921
 11
57.067
 20
65.389
 21
65.586
  0
LINE
  8
0
 10
57.067
 11
57.232
 20
65.586
 21
65.768
  0
LINE
  8
0
 10
57.232
 11
57.414
 20
65.768
 21
65.933
  0
LINE
  8
0
 10
57.414
 11
57.611
 20
65.933
 21
66.079
  0
LINE
  8
0
 10
57.611
 11
57.822
 20
66.079
 21
66.205
  0
LINE
  8
0
 10
57.822
 11
58.043
 20
66.205
 21
66.31
  0
LINE
  8
0
 10
58.043
 11
58.274
 20
66.31
 21
66.392
  0
LINE
  8
0
 10
58.274
 11
58.512
 20
66.392
 21
66.452
  0
LINE
  8
0
 10
58.512
 11
58.755
 20
66.452
 21
66.488
  0
LINE
  8
0
 10
58.755
 11
59
 20
66.488
 21
66.5
  0
LINE
  8
0
 10
59
 11
59.245
 20
66.5
 21
66.488
  0
LINE
  8
0
 10
59.245
 11
59.488
 20
66.488
 21
66.452
  0
LINE
  8
0
 10
59.488
 11
59.726
 20
66.452
 21
66.392
  0
LINE
  8
0
 10
59.726
 11
59.957
 20
66.392
 21
66.31
  0
LINE
  8
0
 10
59.957
 11
60.178
 20
66.31
 21
66.205
  0
LINE
  8
0
 10
60.178
 11
60.389
 20
66.205
 21
66.079
  0
LINE
  8
0
 10
60.389
 11
60.586
 20
66.079
 21
65.933
  0
LINE
  8
0
 10
60.586
 11
60.768
 20
65.933
 21
65.768
  0
LINE
  8
0
 10
60.768
 11
60.933
 20
65.768
 21
65.586
  0
LINE
  8
0
 10
60.933
 11
61.079
 20
65.586
 21
65.389
  0
LINE
  8
0
 10
61.079
 11
61.205
 20
65.389
 21
65.178
  0
LINE
  8
0
 10
61.205
 11
61.31
 20
65.178
 21
64.957
  0
LINE
  8
0
 10
61.31
 11
61.392
 20
64.957
 21
64.726
  0
LINE
  8
0
 10
61.392
 11
61.452
 20
64.726
 21
64.488
  0
LINE
  8
0
 10
61.452
 11
61.488
 20
64.488
 21
64.245
  0
LINE
  8
0
 10
61.488
 11
61.5
 20
64.245
 21
64
  0
LINE
  8
0
 10
61.5
 11
61.488
 20
64
 21
63.755
  0
LINE
  8
0
 10
61.488
 11
61.452
 20
63.755
 21
63.512
  0
LINE
  8
0
 10
61.452
 11
61.392
 20
63.512
 21
63.274
  0
LINE
  8
0
 10
61.392
 11
61.31
 20
63.274
 21
63.043
  0
LINE
  8
0
 10
61.31
 11
61.205
 20
63.043
 21
62.822
  0
LINE
  8
0
 10
61.205
 11
61.079
 20
62.822
 21
62.611
  0
LINE
  8
0
 10
61.079
 11
60.933
 20
62.611
 21
62.414
  0
LINE
  8
0
 10
60.933
 11
60.768
 20
62.414
 21
62.232
  0
LINE
  8
0
 10
60.768
 11
60.586
 20
62.232
 21
62.067
  0
LINE
  8
0
 10
60.586
 11
60.389
 20
62.067
 21
61.921
  0
LINE
  8
0
 10
60.389
 11
60.178
 20
61.921
 21
61.795
  0
LINE
  8
0
 10
60.178
 11
59.957
 20
61.795
 21
61.69
  0
LINE
  8
0
 10
59.957
 11
59.726
 20
61.69
 21
61.608
  0
LINE
  8
0
 10
59.726
 11
59.488
 20
61.608
 21
61.548
  0
LINE
  8
0
 10
59.488
 11
59.245
 20
61.548
 21
61.512
  0
LINE
  8
0
 10
59.245
 11
59
 20
61.512
 21
61.5
  0
LINE
  8
0
 10
59
 11
58.755
 20
61.5
 21
61.512
  0
LINE
  8
0
 10
58.755
 11
58.512
 20
61.512
 21
61.548
  0
LINE
  8
0
 10
58.512
 11
58.274
 20
61.548
 21
61.608
  0
LINE
  8
0
 10
58.274
 11
58.043
 20
61.608
 21
61.69
  0
LINE
  8
0
 10
58.043
 11
57.822
 20
61.69
 21
61.795
  0
LINE
  8
0
 10
57.822
 11
57.611
 20
61.795
 21
61.921
  0
LINE
  8
0
 10
57.611
 11
57.414
 20
61.921
 21
62.067
  0
LINE
  8
0
 10
57.414
 11
57.232
 20
62.067
 21
62.232
  0
LINE
  8
0
 10
57.232
 11
57.067
 20
62.232
 21
62.414
  0
LINE
  8
0
 10
57.067
 11
56.921
 20
62.414
 21
62.611
  0
LINE
  8
0
 10
56.921
 11
56.795
 20
62.611
 21
62.822
  0
LINE
  8
0
 10
56.795
 11
56.69
 20
62.822
 21
63.043
  0
LINE
  8
0
 10
56.69
 11
56.608
 20
63.043
 21
63.274
  0
LINE
  8
0
 10
56.608
 11
56.548
 20
63.274
 21
63.512
  0
LINE
  8
0
 10
56.548
 11
56.512
 20
63.512
 21
63.755
  0
LINE
  8
0
 10
56.512
 11
56.5
 20
63.755
 21
64
  0
LINE
  8
0
 10
60.5
 11
60.512
 20
70
 21
70.245
  0
LINE
  8
0
 10
60.512
 11
60.548
 20
70.245
 21
70.488
  0
LINE
  8
0
 10
60.548
 11
60.608
 20
70.488
 21
70.726
  0
LINE
  8
0
 10
60.608
 11
60.69
 20
70.726
 21
70.957
  0
LINE
  8
0
 10
60.69
 11
60.795
 20
70.957
 21
71.178
  0
LINE
  8
0
 10
60.795
 11
60.921
 20
71.178
 21
71.389
  0
LINE
  8
0
 10
60.921
 11
61.067
 20
71.389
 21
71.586
  0
LINE
  8
0
 10
61.067
 11
61.232
 20
71.586
 21
71.768
  0
LINE
  8
0
 10
61.232
 11
61.414
 20
71.768
 21
71.933
  0
LINE
  8
0
 10
61.414
 11
61.611
 20
71.933
 21
72.079
  0
LINE
  8
0
 10
61.611
 11
61.822
 20
72.079
 21
72.205
  0
LINE
  8
0
 10
61.822
 11
62.043
 20
72.205
 21
72.31
  0
LINE
  8
0
 10
62.043
 11
62.274
 20
72.31
 21
72.392
  0
LINE
  8
0
 10
62.274
 11
62.512
 20
72.392
 21
72.452
  0
LINE
  8
0
 10
62.512
 11
62.755
 20
72.452
 21
72.488
  0
LINE
  8
0
 10
62.755
 11
63
 20
72.488
 21
72.5
  0
LINE
  8
0
 10
63
 11
63.245
 20
72.5
 21
72.488
  0
LINE
  8
0
 10
63.245
 11
63.488
 20
72.488
 21
72.452
  0
LINE
  8
0
 10
63.488
 11
63.726
 20
72.452
 21
72.392
  0
LINE
  8
0
 10
63.726
 11
63.957
 20
72.392
 21
72.31
  0
LINE
  8
0
 10
63.957
 11
64.178
 20
72.31
 21
72.205
  0
LINE
  8
0
 10
64.178
 11
64.389
 20
72.205
 21
72.079
  0
LINE
  8
0
 10
64.389
 11
64.586
 20
72.079
 21
71.933
  0
LINE
  8
0
 10
64.586
 11
64.768
 20
71.933
 21
71.768
  0
LINE
  8
0
 10
64.768
 11
64.933
 20
71.768
 21
71.586
  0
LINE
  8
0
 10
64.933
 11
65.079
 20
71.586
 21
71.389
  0
LINE
  8
0
 10
65.079
 11
65.205
 20
71.389
 21
71.178
  0
LINE
  8
0
 10
65.205
 11
65.31
 20
71.178
 21
70.957
  0
LINE
  8
0
 10
65.31
 11
65.392
 20
70.957
 21
70.726
  0
LINE
  8
0
 10
65.392
 11
65.452
 20
70.726
 21
70.488
  0
LINE
  8
0
 10
65.452
 11
65.488
 20
70.488
 21
70.245
  0
LINE
  8
0
 10
65.488
 11
65.5
 20
70.245
 21
70
  0
LINE
  8
0
 10
65.5
 11
65.488
 20
70
 21
69.755
  0
LINE
  8
0
 10
65.488
 11
65.452
 20
69.755
 21
69.512
  0
LINE
  8
0
 10
65.452
 11
65.392
 20
69.512
 21
69.274
  0
LINE
  8
0
 10
65.392
 11
65.31
 20
69.274
 21
69.043
  0
LINE
  8
0
 10
65.31
 11
65.205
 20
69.043
 21
68.822
  0
LINE
  8
0
 10
65.205
 11
65.079
 20
68.822
 21
68.611
  0
LINE
  8
0
 10
65.079
 11
64.933
 20
68.611
 21
68.414
  0
LINE
  8
0
 10
64.933
 11
64.768
 20
68.414
 21
68.232
  0
LINE
  8
0
 10
64.768
 11
64.586
 20
68.232
 21
68.067
  0
LINE
  8
0
 10
64.586
 11
64.389
 20
68.067
 21
67.921
  0
LINE
  8
0
 10
64.389
 11
64.178
 20
67.921
 21
67.795
  0
LINE
  8
0
 10
64.178
 11
63.957
 20
67.795
 21
67.69
  0
LINE
  8
0
 10
63.957
 11
63.726
 20
67.69
 21
67.608
  0
LINE
  8
0
 10
63.726
 11
63.488
 20
67.608
 21
67.548
  0
LINE
  8
0
 10
63.488
 11
63.245
 20
67.548
 21
67.512
  0
LINE
  8
0
 10
63.245
 11
63
 20
67.512
 21
67.5
  0
LINE
  8
0
 10
63
 11
62.755
 20
67.5
 21
67.512
  0
LINE
  8
0
 10
62.755
 11
62.512
 20
67.512
 21
67.548
  0
LINE
  8
0
 10
62.512
 11
62.274
 20
67.548
 21
67.608
  0
LINE
  8
0
 10
62.274
 11
62.043
 20
67.608
 21
67.69
  0
LINE
  8
0
 10
62.043
 11
61.822
 20
67.69
 21
67.795
  0
LINE
  8
0
 10
61.822
 11
61.611
 20
67.795
 21
67.921
  0
LINE
  8
0
 10
61.611
 11
61.414
 20
67.921
 21
68.067
  0
LINE
  8
0
 10
61.414
 11
61.232
 20
68.067
 21
68.232
  0
LINE
  8
0
 10
61.232
 11
61.067
 20
68.232
 21
68.414
  0
LINE
  8
0
 10
61.067
 11
60.921
 20
68.414
 21
68.611
  0
LINE
  8
0
 10
60.921
 11
60.795
 20
68.611
 21
68.822
  0
LINE
  8
0
 10
60.795
 11
60.69
 20
68.822
 21
69.043
  0
LINE
  8
0
 10
60.69
 11
60.608
 20
69.043
 21
69.274
  0
LINE
  8
0
 10
60.608
 11
60.548
 20
69.274
 21
69.512
  0
LINE
  8
0
 10
60.548
 11
60.512
 20
69.512
 21
69.755
  0
LINE
  8
0
 10
60.512
 11
60.5
 20
69.755
 21
70
  0
LINE
  8
0
 10
80
 11
80
 20
-40
 21
-37
  0
LINE
  8
0
 10
80
 11
100
 20
-37
 21
-37
  0
LINE
  8
0
 10
100
 11
100
 20
-37
 21
-40
  0
LINE
  8
0
 10
100
 11
80
 20
-40
 21
-40
  0
LINE
  8
0
 10
114.5
 11
114.512
 20
70
 21
70.245
  0
LINE
  8
0
 10
114.512
 11
114.548
 20
70.245
 21
70.488
  0
LINE
  8
0
 10
114.548
 11
114.608
 20
70.488
 21
70.726
  0
LINE
  8
0
 10
114.608
 11
114.69
 20
70.726
 21
70.957
  0
LINE
  8
0
 10
114.69
 11
114.795
 20
70.957
 21
71.178
  0
LINE
  8
0
 10
114.795
 11
114.921
 20
71.178
 21
71.389
  0
LINE
  8
0
 10
114.921
 11
115.067
 20
71.389
 21
71.586
  0
LINE
  8
0
 10
115.067
 11
115.232
 20
71.586
 21
71.768
  0
LINE
  8
0
 10
115.232
 11
115.414
 20
71.768
 21
71.933
  0
LINE
  8
0
 10
115.414
 11
115.611
 20
71.933
 21
72.079
  0
LINE
  8
0
 10
115.611
 11
115.822
 20
72.079
 21
72.205
  0
LINE
  8
0
 10
115.822
 11
116.043
 20
72.205
 21
72.31
  0
LINE
  8
0
 10
116.043
 11
116.274
 20
72.31
 21
72.392
  0
LINE
  8
0
 10
116.274
 11
116.512
 20
72.392
 21
72.452
  0
LINE
  8
0
 10
116.512
 11
116.755
 20
72.452
 21
72.488
  0
LINE
  8
0
 10
116.755
 11
117
 20
72.488
 21
72.5
  0
LINE
  8
0
 10
117
 11
117.245
 20
72.5
 21
72.488
  0
LINE
  8
0
 10
117.245
 11
117.488
 20
72.488
 21
72.452
  0
LINE
  8
0
 10
117.488
 11
117.726
 20
72.452
 21
72.392
  0
LINE
  8
0
 10
117.726
 11
117.957
 20
72.392
 21
72.31
  0
LINE
  8
0
 10
117.957
 11
118.178
 20
72.31
 21
72.205
  0
LINE
  8
0
 10
118.178
 11
118.389
 20
72.205
 21
72.079
  0
LINE
  8
0
 10
118.389
 11
118.586
 20
72.079
 21
71.933
  0
LINE
  8
0
 10
118.586
 11
118.768
 20
71.933
 21
71.768
  0
LINE
  8
0
 10
118.768
 11
118.933
 20
71.768
 21
71.586
  0
LINE
  8
0
 10
118.933
 11
119.079
 20
71.586
 21
71.389
  0
LINE
  8
0
 10
119.079
 11
119.205
 20
71.389
 21
71.178
  0
LINE
  8
0
 10
119.205
 11
119.31
 20
71.178
 21
70.957
  0
LINE
  8
0
 10
119.31
 11
119.392
 20
70.957
 21
70.726
  0
LINE
  8
0
 10
119.392
 11
119.452
 20
70.726
 21
70.488
  0
LINE
  8
0
 10
119.452
 11
119.488
 20
70.488
 21
70.245
  0
LINE
  8
0
 10
119.488
 11
119.5
 20
70.245
 21
70
  0
LINE
  8
0
 10
119.5
 11
119.488
 20
70
 21
69.755
  0
LINE
  8
0
 10
119.488
 11
119.452
 20
69.755
 21
69.512
  0
LINE
  8
0
 10
119.452
 11
119.392
 20
69.512
 21
69.274
  0
LINE
  8
0
 10
119.392
 11
119.31
 20
69.274
 21
69.043
  0
LINE
  8
0
 10
119.31
 11
119.205
 20
69.043
 21
68.822
  0
LINE
  8
0
 10
119.205
 11
119.079
 20
68.822
 21
68.611
  0
LINE
  8
0
 10
119.079
 11
118.933
 20
68.611
 21
68.414
  0
LINE
  8
0
 10
118.933
 11
118.768
 20
68.414
 21
68.232
  0
LINE
  8
0
 10
118.768
 11
118.586
 20
68.232
 21
68.067
  0
LINE
  8
0
 10
118.586
 11
118.389
 20
68.067
 21
67.921
  0
LINE
  8
0
 10
118.389
 11
118.178
 20
67.921
 21
67.795
  0
LINE
  8
0
 10
118.178
 11
117.957
 20
67.795
 21
67.69
  0
LINE
  8
0
 10
117.957
 11
117.726
 20
67.69
 21
67.608
  0
LINE
  8
0
 10
117.726
 11
117.488
 20
67.608
 21
67.548
  0
LINE
  8
0
 10
117.488
 11
117.245
 20
67.548
 21
67.512
  0
LINE
  8
0
 10
117.245
 11
117
 20
67.512
 21
67.5
  0
LINE
  8
0
 10
117
 11
116.755
 20
67.5
 21
67.512
  0
LINE
  8
0
 10
116.755
 11
116.512
 20
67.512
 21
67.548
  0
LINE
  8
0
 10
116.512
 11
116.274
 20
67.548
 21
67.608
  0
LINE
  8
0
 10
116.274
 11
116.043
 20
67.608
 21
67.69
  0
LINE
  8
0
 10
116.043
 11
115.822
 20
67.69
 21
67.795
  0
LINE
  8
0
 10
115.822
 11
115.611
 20
67.795
 21
67.921
  0
LINE
  8
0
 10
115.611
 11
115.414
 20
67.921
 21
68.067
  0
LINE
  8
0
 10
115.414
 11
115.232
 20
68.067
 21
68.232
  0
LINE
  8
0
 10
115.232
 11
115.067
 20
68.232
 21
68.414
  0
LINE
  8
0
 10
115.067
 11
114.921
 20
68.414
 21
68.611
  0
LINE
  8
0
 10
114.921
 11
114.795
 20
68.611
 21
68.822
  0
LINE
  8
0
 10
114.795
 11
114.69
 20
68.822
 21
69.043
  0
LINE
  8
0
 10
114.69
 11
114.608
 20
69.043
 21
69.274
  0
LINE
  8
0
 10
114.608
 11
114.548
 20
69.274
 21
69.512
  0
LINE
  8
0
 10
114.548
 11
114.512
 20
69.512
 21
69.755
  0
LINE
  8
0
 10
114.512
 11
114.5
 20
69.755
 21
70
  0
LINE
  8
0
 10
118.5
 11
118.512
 20
64
 21
64.245
  0
LINE
  8
0
 10
118.512
 11
118.548
 20
64.245
 21
64.488
  0
LINE
  8
0
 10
118.548
 11
118.608
 20
64.488
 21
64.726
  0
LINE
  8
0
 10
118.608
 11
118.69
 20
64.726
 21
64.957
  0
LINE
  8
0
 10
118.69
 11
118.795
 20
64.957
 21
65.178
  0
LINE
  8
0
 10
118.795
 11
118.921
 20
65.178
 21
65.389
  0
LINE
  8
0
 10
118.921
 11
119.067
 20
65.389
 21
65.586
  0
LINE
  8
0
 10
119.067
 11
119.232
 20
65.586
 21
65.768
  0
LINE
  8
0
 10
119.232
 11
119.414
 20
65.768
 21
65.933
  0
LINE
  8
0
 10
119.414
 11
119.611
 20
65.933
 21
66.079
  0
LINE
  8
0
 10
119.611
 11
119.822
 20
66.079
 21
66.205
  0
LINE
  8
0
 10
119.822
 11
120.043
 20
66.205
 21
66.31
  0
LINE
  8
0
 10
120.043
 11
120.274
 20
66.31
 21
66.392
  0
LINE
  8
0
 10
120.274
 11
120.512
 20
66.392
 21
66.452
  0
LINE
  8
0
 10
120.512
 11
120.755
 20
66.452
 21
66.488
  0
LINE
  8
0
 10
120.755
 11
121
 20
66.488
 21
66.5
  0
LINE
  8
0
 10
121
 11
121.245
 20
66.5
 21
66.488
  0
LINE
  8
0
 10
121.245
 11
121.488
 20
66.488
 21
66.452
  0
LINE
  8
0
 10
121.488
 11
121.726
 20
66.452
 21
66.392
  0
LINE
  8
0
 10
121.726
 11
121.957
 20
66.392
 21
66.31
  0
LINE
  8
0
 10
121.957
 11
122.178
 20
66.31
 21
66.205
  0
LINE
  8
0
 10
122.178
 11
122.389
 20
66.205
 21
66.079
  0
LINE
  8
0
 10
122.389
 11
122.586
 20
66.079
 21
65.933
  0
LINE
  8
0
 10
122.586
 11
122.768
 20
65.933
 21
65.768
  0
LINE
  8
0
 10
122.768
 11
122.933
 20
65.768
 21
65.586
  0
LINE
  8
0
 10
122.933
 11
123.079
 20
65.586
 21
65.389
  0
LINE
  8
0
 10
123.079
 11
123.205
 20
65.389
 21
65.178
  0
LINE
  8
0
 10
123.205
 11
123.31
 20
65.178
 21
64.957
  0
LINE
  8
0
 10
123.31
 11
123.392
 20
64.957
 21
64.726
  0
LINE
  8
0
 10
123.392
 11
123.452
 20
64.726
 21
64.488
  0
LINE
  8
0
 10
123.452
 11
123.488
 20
64.488
 21
64.245
  0
LINE
  8
0
 10
123.488
 11
123.5
 20
64.245
 21
64
  0
LINE
  8
0
 10
123.5
 11
123.488
 20
64
 21
63.755
  0
LINE
  8
0
 10
123.488
 11
123.452
 20
63.755
 21
63.512
  0
LINE
  8
0
 10
123.452
 11
123.392
 20
63.512
 21
63.274
  0
LINE
  8
0
 10
123.392
 11
123.31
 20
63.274
 21
63.043
  0
LINE
  8
0
 10
123.31
 11
123.205
 20
63.043
 21
62.822
  0
LINE
  8
0
 10
123.205
 11
123.079
 20
62.822
 21
62.611
  0
LINE
  8
0
 10
123.079
 11
122.933
 20
62.611
 21
62.414
  0
LINE
  8
0
 10
122.933
 11
122.768
 20
62.414
 21
62.232
  0
LINE
  8
0
 10
122.768
 11
122.586
 20
62.232
 21
62.067
  0
LINE
  8
0
 10
122.586
 11
122.389
 20
62.067
 21
61.921
  0
LINE
  8
0
 10
122.389
 11
122.178
 20
61.921
 21
61.795
  0
LINE
  8
0
 10
122.178
 11
121.957
 20
61.795
 21
61.69
  0
LINE
  8
0
 10
121.957
 11
121.726
 20
61.69
 21
61.608
  0
LINE
  8
0
 10
121.726
 11
121.488
 20
61.608
 21
61.548
  0
LINE
  8
0
 10
121.488
 11
121.245
 20
61.548
 21
61.512
  0
LINE
  8
0
 10
121.245
 11
121
 20
61.512
 21
61.5
  0
LINE
  8
0
 10
121
 11
120.755
 20
61.5
 21
61.512
  0
LINE
  8
0
 10
120.755
 11
120.512
 20
61.512
 21
61.548
  0
LINE
  8
0
 10
120.512
 11
120.274
 20
61.548
 21
61.608
  0
LINE
  8
0
 10
120.274
 11
120.043
 20
61.608
 21
61.69
  0
LINE
  8
0
 10
120.043
 11
119.822
 20
61.69
 21
61.795
  0
LINE
  8
0
 10
119.822
 11
119.611
 20
61.795
 21
61.921
  0
LINE
  8
0
 10
119.611
 11
119.414
 20
61.921
 21
62.067
  0
LINE
  8
0
 10
119.414
 11
119.232
 20
62.067
 21
62.232
  0
LINE
  8
0
 10
119.232
 11
119.067
 20
62.232
 21
62.414
  0
LINE
  8
0
 10
119.067
 11
118.921
 20
62.414
 21
62.611
  0
LINE
  8
0
 10
118.921
 11
118.795
 20
62.611
 21
62.822
  0
LINE
  8
0
 10
118.795
 11
118.69
 20
62.822
 21
63.043
  0
LINE
  8
0
 10
118.69
 11
118.608
 20
63.043
 21
63.274
  0
LINE
  8
0
 10
118.608
 11
118.548
 20
63.274
 21
63.512
  0
LINE
  8
0
 10
118.548
 11
118.512
 20
63.512
 21
63.755
  0
LINE
  8
0
 10
118.512
 11
118.5
 20
63.755
 21
64
  0
LINE
  8
0
 10
122.5
 11
122.512
 20
70
 21
70.245
  0
LINE
  8
0
 10
122.512
 11
122.548
 20
70.245
 21
70.488
  0
LINE
  8
0
 10
122.548
 11
122.608
 20
70.488
 21
70.726
  0
LINE
  8
0
 10
122.608
 11
122.69
 20
70.726
 21
70.957
  0
LINE
  8
0
 10
122.69
 11
122.795
 20
70.957
 21
71.178
  0
LINE
  8
0
 10
122.795
 11
122.921
 20
71.178
 21
71.389
  0
LINE
  8
0
 10
122.921
 11
123.067
 20
71.389
 21
71.586
  0
LINE
  8
0
 10
123.067
 11
123.232
 20
71.586
 21
71.768
  0
LINE
  8
0
 10
123.232
 11
123.414
 20
71.768
 21
71.933
  0
LINE
  8
0
 10
123.414
 11
123.611
 20
71.933
 21
72.079
  0
LINE
  8
0
 10
123.611
 11
123.822
 20
72.079
 21
72.205
  0
LINE
  8
0
 10
123.822
 11
124.043
 20
72.205
 21
72.31
  0
LINE
  8
0
 10
124.043
 11
124.274
 20
72.31
 21
72.392
  0
LINE
  8
0
 10
124.274
 11
124.512
 20
72.392
 21
72.452
  0
LINE
  8
0
 10
124.512
 11
124.755
 20
72.452
 21
72.488
  0
LINE
  8
0
 10
124.755
 11
125
 20
72.488
 21
72.5
  0
LINE
  8
0
 10
125
 11
125.245
 20
72.5
 21
72.488
  0
LINE
  8
0
 10
125.245
 11
125.488
 20
72.488
 21
72.452
  0
LINE
  8
0
 10
125.488
 11
125.726
 20
72.452
 21
72.392
  0
LINE
  8
0
 10
125.726
 11
125.957
 20
72.392
 21
72.31
  0
LINE
  8
0
 10
125.957
 11
126.178
 20
72.31
 21
72.205
  0
LINE
  8
0
 10
126.178
 11
126.389
 20
72.205
 21
72.079
  0
LINE
  8
0
 10
126.389
 11
126.586
 20
72.079
 21
71.933
  0
LINE
  8
0
 10
126.586
 11
126.768
 20
71.933
 21
71.768
  0
LINE
  8
0
 10
126.768
 11
126.933
 20
71.768
 21
71.586
  0
LINE
  8
0
 10
126.933
 11
127.079
 20
71.586
 21
71.389
  0
LINE
  8
0
 10
127.079
 11
127.205
 20
71.389
 21
71.178
  0
LINE
  8
0
 10
127.205
 11
127.31
 20
71.178
 21
70.957
  0
LINE
  8
0
 10
127.31
 11
127.392
 20
70.957
 21
70.726
  0
LINE
  8
0
 10
127.392
 11
127.452
 20
70.726
 21
70.488
  0
LINE
  8
0
 10
127.452
 11
127.488
 20
70.488
 21
70.245
  0
LINE
  8
0
 10
127.488
 11
127.5
 20
70.245
 21
70
  0
LINE
  8
0
 10
127.5
 11
127.488
 20
70
 21
69.755
  0
LINE
  8
0
 10
127.488
 11
127.452
 20
69.755
 21
69.512
  0
LINE
  8
0
 10
127.452
 11
127.392
 20
69.512
 21
69.274
  0
LINE
  8
0
 10
127.392
 11
127.31
 20
69.274
 21
69.043
  0
LINE
  8
0
 10
127.31
 11
127.205
 20
69.043
 21
68.822
  0
LINE
  8
0
 10
127.205
 11
127.079
 20
68.822
 21
68.611
  0
LINE
  8
0
 10
127.079
 11
126.933
 20
68.611
 21
68.414
  0
LINE
  8
0
 10
126.933
 11
126.768
 20
68.414
 21
68.232
  0
LINE
  8
0
 10
126.768
 11
126.586
 20
68.232
 21
68.067
  0
LINE
  8
0
 10
126.586
 11
126.389
 20
68.067
 21
67.921
  0
LINE
  8
0
 10
126.389
 11
126.178
 20
67.921
 21
67.795
  0
LINE
  8
0
 10
126.178
 11
125.957
 20
67.795
 21
67.69
  0
LINE
  8
0
 10
125.957
 11
125.726
 20
67.69
 21
67.608
  0
LINE
  8
0
 10
125.726
 11
125.488
 20
67.608
 21
67.548
  0
LINE
  8
0
 10
125.488
 11
125.245
 20
67.548
 21
67.512
  0
LINE
  8
0
 10
125.245
 11
125
 20
67.512
 21
67.5
  0
LINE
  8
0
 10
125
 11
124.755
 20
67.5
 21
67.512
  0
LINE
  8
0
 10
124.755
 11
124.512
 20
67.512
 21
67.548
  0
LINE
  8
0
 10
124.512
 11
124.274
 20
67.548
 21
67.608
  0
LINE
  8
0
 10
124.274
 11
124.043
 20
67.608
 21
67.69
  0
LINE
  8
0
 10
124.043
 11
123.822
 20
67.69
 21
67.795
  0
LINE
  8
0
 10
123.822
 11
123.611
 20
67.795
 21
67.921
  0
LINE
  8
0
 10
123.611
 11
123.414
 20
67.921
 21
68.067
  0
LINE
  8
0
 10
123.414
 11
123.232
 20
68.067
 21
68.232
  0
LINE
  8
0
 10
123.232
 11
123.067
 20
68.232
 21
68.414
  0
LINE
  8
0
 10
123.067
 11
122.921
 20
68.414
 21
68.611
  0
LINE
  8
0
 10
122.921
 11
122.795
 20
68.611
 21
68.822
  0
LINE
  8
0
 10
122.795
 11
122.69
 20
68.822
 21
69.043
  0
LINE
  8
0
 10
122.69
 11
122.608
 20
69.043
 21
69.274
  0
LINE
  8
0
 10
122.608
 11
122.548
 20
69.274
 21
69.512
  0
LINE
  8
0
 10
122.548
 11
122.512
 20
69.512
 21
69.755
  0
LINE
  8
0
 10
122.512
 11
122.5
 20
69.755
 21
70
  0
LINE
  8
0
 10
130
 11
130.01
 20
-40
 21
-39.804
  0
LINE
  8
0
 10
130.01
 11
130.038
 20
-39.804
 21
-39.61
  0
LINE
  8
0
 10
130.038
 11
130.086
 20
-39.61
 21
-39.419
  0
LINE
  8
0
 10
130.086
 11
130.152
 20
-39.419
 21
-39.235
  0
LINE
  8
0
 10
130.152
 11
130.236
 20
-39.235
 21
-39.057
  0
LINE
  8
0
 10
130.236
 11
130.337
 20
-39.057
 21
-38.889
  0
LINE
  8
0
 10
130.337
 11
130.454
 20
-38.889
 21
-38.731
  0
LINE
  8
0
 10
130.454
 11
130.586
 20
-38.731
 21
-38.586
  0
LINE
  8
0
 10
130.586
 11
130.731
 20
-38.586
 21
-38.454
  0
LINE
  8
0
 10
130.731
 11
130.889
 20
-38.454
 21
-38.337
  0
LINE
  8
0
 10
130.889
 11
131.057
 20
-38.337
 21
-38.236
  0
LINE
  8
0
 10
131.057
 11
131.235
 20
-38.236
 21
-38.152
  0
LINE
  8
0
 10
131.235
 11
131.419
 20
-38.152
 21
-38.086
  0
LINE
  8
0
 10
131.419
 11
131.61
 20
-38.086
 21
-38.038
  0
LINE
  8
0
 10
131.61
 11
131.804
 20
-38.038
 21
-38.01
  0
LINE
  8
0
 10
131.804
 11
132
 20
-38.01
 21
-38
  0
LINE
  8
0
 10
132
 11
132.196
 20
-38
 21
-38.01
  0
LINE
  8
0
 10
132.196
 11
132.39
 20
-38.01
 21
-38.038
  0
LINE
  8
0
 10
132.39
 11
132.581
 20
-38.038
 21
-38.086
  0
LINE
  8
0
 10
132.581
 11
132.765
 20
-38.086
 21
-38.152
  0
LINE
  8
0
 10
132.765
 11
132.943
 20
-38.152
 21
-38.236
  0
LINE
  8
0
 10
132.943
 11
133.111
 20
-38.236
 21
-38.337
  0
LINE
  8
0
 10
133.111
 11
133.269
 20
-38.337
 21
-38.454
  0
LINE
  8
0
 10
133.269
 11
133.414
 20
-38.454
 21
-38.586
  0
LINE
  8
0
 10
133.414
 11
133.546
 20
-38.586
 21
-38.731
  0
LINE
  8
0
 10
133.546
 11
133.663
 20
-38.731
 21
-38.889
  0
LINE
  8
0
 10
133.663
 11
133.764
 20
-38.889
 21
-39.057
  0
LINE
  8
0
 10
133.764
 11
133.848
 20
-39.057
 21
-39.235
  0
LINE
  8
0
 10
133.848
 11
133.914
 20
-39.235
 21
-39.419
  0
LINE
  8
0
 10
133.914
 11
133.962
 20
-39.419
 21
-39.61
  0
LINE
  8
0
 10
133.962
 11
133.99
 20
-39.61
 21
-39.804
  0
LINE
  8
0
 10
133.99
 11
134
 20
-39.804
 21
-40
  0
LINE
  8
0
 10
134
 11
133.99
 20
-40
 21
-40.196
  0
LINE
  8
0
 10
133.99
 11
133.962
 20
-40.196
 21
-40.39
  0
LINE
  8
0
 10
133.962
 11
133.914
 20
-40.39
 21
-40.581
  0
LINE
  8
0
 10
133.914
 11
133.848
 20
-40.581
 21
-40.765
  0
LINE
  8
0
 10
133.848
 11
133.764
 20
-40.765
 21
-40.943
  0
LINE
  8
0
 10
133.764
 11
133.663
 20
-40.943
 21
-41.111
  0
LINE
  8
0
 10
133.663
 11
133.546
 20
-41.111
 21
-41.269
  0
LINE
  8
0
 10
133.546
 11
133.414
 20
-41.269
 21
-41.414
  0
LINE
  8
0
 10
133.414
 11
133.269
 20
-41.414
 21
-41.546
  0
LINE
  8
0
 10
133.269
 11
133.111
 20
-41.546
 21
-41.663
  0
LINE
  8
0
 10
133.111
 11
132.943
 20
-41.663
 21
-41.764
  0
LINE
  8
0
 10
132.943
 11
132.765
 20
-41.764
 21
-41.848
  0
LINE
  8
0
 10
132.765
 11
132.581
 20
-41.848
 21
-41.914
  0
LINE
  8
0
 10
132.581
 11
132.39
 20
-41.914
 21
-41.962
  0
LINE
  8
0
 10
132.39
 11
132.196
 20
-41.962
 21
-41.99
  0
LINE
  8
0
 10
132.196
 11
132
 20
-41.99
 21
-42
  0
LINE
  8
0
 10
132
 11
131.804
 20
-42
 21
-41.99
  0
LINE
  8
0
 10
131.804
 11
131.61
 20
-41.99
 21
-41.962
  0
LINE
  8
0
 10
131.61
 11
131.419
 20
-41.962
 21
-41.914
  0
LINE
  8
0
 10
131.419
 11
131.235
 20
-41.914
 21
-41.848
  0
LINE
  8
0
 10
131.235
 11
131.057
 20
-41.848
 21
-41.764
  0
LINE
  8
0
 10
131.057
 11
130.889
 20
-41.764
 21
-41.663
  0
LINE
  8
0
 10
130.889
 11
130.731
 20
-41.663
 21
-41.546
  0
LINE
  8
0
 10
130.731
 11
130.586
 20
-41.546
 21
-41.414
  0
LINE
  8
0
 10
130.586
 11
130.454
 20
-41.414
 21
-41.269
  0
LINE
  8
0
 10
130.454
 11
130.337
 20
-41.269
 21
-41.111
  0
LINE
  8
0
 10
130.337
 11
130.236
 20
-41.111
 21
-40.943
  0
LINE
  8
0
 10
130.236
 11
130.152
 20
-40.943
 21
-40.765
  0
LINE
  8
0
 10
130.152
 11
130.086
 20
-40.765
 21
-40.581
  0
LINE
  8
0
 10
130.086
 11
130.038
 20
-40.581
 21
-40.39
  0
LINE
  8
0
 10
130.038
 11
130.01
 20
-40.39
 21
-40.196
  0
LINE
  8
0
 10
130.01
 11
130
 20
-40.196
 21
-40
  0
LINE
  8
0
 10
130
 11
130.01
 20
70
 21
70.196
  0
LINE
  8
0
 10
130.01
 11
130.038
 20
70.196
 21
70.39
  0
LINE
  8
0
 10
130.038
 11
130.086
 20
70.39
 21
70.581
  0
LINE
  8
0
 10
130.086
 11
130.152
 20
70.581
 21
70.765
  0
LINE
  8
0
 10
130.152
 11
130.236
 20
70.765
 21
70.943
  0
LINE
  8
0
 10
130.236
 11
130.337
 20
70.943
 21
71.111
  0
LINE
  8
0
 10
130.337
 11
130.454
 20
71.111
 21
71.269
  0
LINE
  8
0
 10
130.454
 11
130.586
 20
71.269
 21
71.414
  0
LINE
  8
0
 10
130.586
 11
130.731
 20
71.414
 21
71.546
  0
LINE
  8
0
 10
130.731
 11
130.889
 20
71.546
 21
71.663
  0
LINE
  8
0
 10
130.889
 11
131.057
 20
71.663
 21
71.764
  0
LINE
  8
0
 10
131.057
 11
131.235
 20
71.764
 21
71.848
  0
LINE
  8
0
 10
131.235
 11
131.419
 20
71.848
 21
71.914
  0
LINE
  8
0
 10
131.419
 11
131.61
 20
71.914
 21
71.962
  0
LINE
  8
0
 10
131.61
 11
131.804
 20
71.962
 21
71.99
  0
LINE
  8
0
 10
131.804
 11
132
 20
71.99
 21
72
  0
LINE
  8
0
 10
132
 11
132.196
 20
72
 21
71.99
  0
LINE
  8
0
 10
132.196
 11
132.39
 20
71.99
 21
71.962
  0
LINE
  8
0
 10
132.39
 11
132.581
 20
71.962
 21
71.914
  0
LINE
  8
0
 10
132.581
 11
132.765
 20
71.914
 21
71.848
  0
LINE
  8
0
 10
132.765
 11
132.943
 20
71.848
 21
71.764
  0
LINE
  8
0
 10
132.943
 11
133.111
 20
71.764
 21
71.663
  0
LINE
  8
0
 10
133.111
 11
133.269
 20
71.663
 21
71.546
  0
LINE
  8
0
 10
133.269
 11
133.414
 20
71.546
 21
71.414
  0
LINE
  8
0
 10
133.414
 11
133.546
 20
71.414
 21
71.269
  0
LINE
  8
0
 10
133.546
 11
133.663
 20
71.269
 21
71.111
  0
LINE
  8
0
 10
133.663
 11
133.764
 20
71.111
 21
70.943
  0
LINE
  8
0
 10
133.764
 11
133.848
 20
70.943
 21
70.765
  0
LINE
  8
0
 10
133.848
 11
133.914
 20
70.765
 21
70.581
  0
LINE
  8
0
 10
133.914
 11
133.962
 20
70.581
 21
70.39
  0
LINE
  8
0
 10
133.962
 11
133.99
 20
70.39
 21
70.196
  0
LINE
  8
0
 10
133.99
 11
134
 20
70.196
 21
70
  0
LINE
  8
0
 10
134
 11
133.99
 20
70
 21
69.804
  0
LINE
  8
0
 10
133.99
 11
133.962
 20
69.804
 21
69.61
  0
LINE
  8
0
 10
133.962
 11
133.914
 20
69.61
 21
69.419
  0
LINE
  8
0
 10
133.914
 11
133.848
 20
69.419
 21
69.235
  0
LINE
  8
0
 10
133.848
 11
133.764
 20
69.235
 21
69.057
  0
LINE
  8
0
 10
133.764
 11
133.663
 20
69.057
 21
68.889
  0
LINE
  8
0
 10
133.663
 11
133.546
 20
68.889
 21
68.731
  0
LINE
  8
0
 10
133.546
 11
133.414
 20
68.731
 21
68.586
  0
LINE
  8
0
 10
133.414
 11
133.269
 20
68.586
 21
68.454
  0
LINE
  8
0
 10
133.269
 11
133.111
 20
68.454
 21
68.337
  0
LINE
  8
0
 10
133.111
 11
132.943
 20
68.337
 21
68.236
  0
LINE
  8
0
 10
132.943
 11
132.765
 20
68.236
 21
68.152
  0
LINE
  8
0
 10
132.765
 11
132.581
 20
68.152
 21
68.086
  0
LINE
  8
0
 10
132.581
 11
132.39
 20
68.086
 21
68.038
  0
LINE
  8
0
 10
132.39
 11
132.196
 20
68.038
 21
68.01
  0
LINE
  8
0
 10
132.196
 11
132
 20
68.01
 21
68
  0
LINE
  8
0
 10
132
 11
131.804
 20
68
 21
68.01
  0
LINE
  8
0
 10
131.804
 11
131.61
 20
68.01
 21
68.038
  0
LINE
  8
0
 10
131.61
 11
131.419
 20
68.038
 21
68.086
  0
LINE
  8
0
 10
131.419
 11
131.235
 20
68.086
 21
68.152
  0
LINE
  8
0
 10
131.235
 11
131.057
 20
68.152
 21
68.236
  0
LINE
  8
0
 10
131.057
 11
130.889
 20
68.236
 21
68.337
  0
LINE
  8
0
 10
130.889
 11
130.731
 20
68.337
 21
68.454
  0
LINE
  8
0
 10
130.731
 11
130.586
 20
68.454
 21
68.586
  0
LINE
  8
0
 10
130.586
 11
130.454
 20
68.586
 21
68.731
  0
LINE
  8
0
 10
130.454
 11
130.337
 20
68.731
 21
68.889
  0
LINE
  8
0
 10
130.337
 11
130.236
 20
68.889
 21
69.057
  0
LINE
  8
0
 10
130.236
 11
130.152
 20
69.057
 21
69.235
  0
LINE
  8
0
 10
130.152
 11
130.086
 20
69.235
 21
69.419
  0
LINE
  8
0
 10
130.086
 11
130.038
 20
69.419
 21
69.61
  0
LINE
  8
0
 10
130.038
 11
130.01
 20
69.61
 21
69.804
  0
LINE
  8
0
 10
130.01
 11
130
 20
69.804
 21
70
  0
LINE
  8
0
 10
132
 11
132
 20
20
 21
40
  0
LINE
  8
0
 10
132
 11
135
 20
40
 21
40
  0
LINE
  8
0
 10
135
 11
135
 20
40
 21
20
  0
LINE
  8
0
 10
135
 11
132
 20
20
 21
20
  0
LINE
  8
0
 10
136.5
 11
136.512
 20
-31
 21
-30.755
  0
LINE
  8
0
 10
136.512
 11
136.548
 20
-30.755
 21
-30.512
  0
LINE
  8
0
 10
136.548
 11
136.608
 20
-30.512
 21
-30.274
  0
LINE
  8
0
 10
136.608
 11
136.69
 20
-30.274
 21
-30.043
  0
LINE
  8
0
 10
136.69
 11
136.795
 20
-30.043
 21
-29.822
  0
LINE
  8
0
 10
136.795
 11
136.921
 20
-29.822
 21
-29.611
  0
LINE
  8
0
 10
136.921
 11
137.067
 20
-29.611
 21
-29.414
  0
LINE
  8
0
 10
137.067
 11
137.232
 20
-29.414
 21
-29.232
  0
LINE
  8
0
 10
137.232
 11
137.414
 20
-29.232
 21
-29.067
  0
LINE
  8
0
 10
137.414
 11
137.611
 20
-29.067
 21
-28.921
  0
LINE
  8
0
 10
137.611
 11
137.822
 20
-28.921
 21
-28.795
  0
LINE
  8
0
 10
137.822
 11
138.043
 20
-28.795
 21
-28.69
  0
LINE
  8
0
 10
138.043
 11
138.274
 20
-28.69
 21
-28.608
  0
LINE
  8
0
 10
138.274
 11
138.512
 20
-28.608
 21
-28.548
  0
LINE
  8
0
 10
138.512
 11
138.755
 20
-28.548
 21
-28.512
  0
LINE
  8
0
 10
138.755
 11
139
 20
-28.512
 21
-28.5
  0
LINE
  8
0
 10
139
 11
139.245
 20
-28.5
 21
-28.512
  0
LINE
  8
0
 10
139.245
 11
139.488
 20
-28.512
 21
-28.548
  0
LINE
  8
0
 10
139.488
 11
139.726
 20
-28.548
 21
-28.608
  0
LINE
  8
0
 10
139.726
 11
139.957
 20
-28.608
 21
-28.69
  0
LINE
  8
0
 10
139.957
 11
140.178
 20
-28.69
 21
-28.795
  0
LINE
  8
0
 10
140.178
 11
140.389
 20
-28.795
 21
-28.921
  0
LINE
  8
0
 10
140.389
 11
140.586
 20
-28.921
 21
-29.067
  0
LINE
  8
0
 10
140.586
 11
140.768
 20
-29.067
 21
-29.232
  0
LINE
  8
0
 10
140.768
 11
140.933
 20
-29.232
 21
-29.414
  0
LINE
  8
0
 10
140.933
 11
141.079
 20
-29.414
 21
-29.611
  0
LINE
  8
0
 10
141.079
 11
141.205
 20
-29.611
 21
-29.822
  0
LINE
  8
0
 10
141.205
 11
141.31
 20
-29.822
 21
-30.043
  0
LINE
  8
0
 10
141.31
 11
141.392
 20
-30.043
 21
-30.274
  0
LINE
  8
0
 10
141.392
 11
141.452
 20
-30.274
 21
-30.512
  0
LINE
  8
0
 10
141.452
 11
141.488
 20
-30.512
 21
-30.755
  0
LINE
  8
0
 10
141.488
 11
141.5
 20
-30.755
 21
-31
  0
LINE
  8
0
 10
141.5
 11
141.488
 20
-31
 21
-31.245
  0
LINE
  8
0
 10
141.488
 11
141.452
 20
-31.245
 21
-31.488
  0
LINE
  8
0
 10
141.452
 11
141.392
 20
-31.488
 21
-31.726
  0
LINE
  8
0
 10
141.392
 11
141.31
 20
-31.726
 21
-31.957
  0
LINE
  8
0
 10
141.31
 11
141.205
 20
-31.957
 21
-32.178
  0
LINE
  8
0
 10
141.205
 11
141.079
 20
-32.178
 21
-32.389
  0
LINE
  8
0
 10
141.079
 11
140.933
 20
-32.389
 21
-32.586
  0
LINE
  8
0
 10
140.933
 11
140.768
 20
-32.586
 21
-32.768
  0
LINE
  8
0
 10
140.768
 11
140.586
 20
-32.768
 21
-32.933
  0
LINE
  8
0
 10
140.586
 11
140.389
 20
-32.933
 21
-33.079
  0
LINE
  8
0
 10
140.389
 11
140.178
 20
-33.079
 21
-33.205
  0
LINE
  8
0
 10
140.178
 11
139.957
 20
-33.205
 21
-33.31
  0
LINE
  8
0
 10
139.957
 11
139.726
 20
-33.31
 21
-33.392
  0
LINE
  8
0
 10
139.726
 11
139.488
 20
-33.392
 21
-33.452
  0
LINE
  8
0
 10
139.488
 11
139.245
 20
-33.452
 21
-33.488
  0
LINE
  8
0
 10
139.245
 11
139
 20
-33.488
 21
-33.5
  0
LINE
  8
0
 10
139
 11
138.755
 20
-33.5
 21
-33.488
  0
LINE
  8
0
 10
138.755
 11
138.512
 20
-33.488
 21
-33.452
  0
LINE
  8
0
 10
138.512
 11
138.274
 20
-33.452
 21
-33.392
  0
LINE
  8
0
 10
138.274
 11
138.043
 20
-33.392
 21
-33.31
  0
LINE
  8
0
 10
138.043
 11
137.822
 20
-33.31
 21
-33.205
  0
LINE
  8
0
 10
137.822
 11
137.611
 20
-33.205
 21
-33.079
  0
LINE
  8
0
 10
137.611
 11
137.414
 20
-33.079
 21
-32.933
  0
LINE
  8
0
 10
137.414
 11
137.232
 20
-32.933
 21
-32.768
  0
LINE
  8
0
 10
137.232
 11
137.067
 20
-32.768
 21
-32.586
  0
LINE
  8
0
 10
137.067
 11
136.921
 20
-32.586
 21
-32.389
  0
LINE
  8
0
 10
136.921
 11
136.795
 20
-32.389
 21
-32.178
  0
LINE
  8
0
 10
136.795
 11
136.69
 20
-32.178
 21
-31.957
  0
LINE
  8
0
 10
136.69
 11
136.608
 20
-31.957
 21
-31.726
  0
LINE
  8
0
 10
136.608
 11
136.548
 20
-31.726
 21
-31.488
  0
LINE
  8
0
 10
136.548
 11
136.512
 20
-31.488
 21
-31.245
  0
LINE
  8
0
 10
136.512
 11
136.5
 20
-31.245
 21
-31
  0
LINE
  8
0
 10
144.5
 11
144.512
 20
-35
 21
-34.755
  0
LINE
  8
0
 10
144.512
 11
144.548
 20
-34.755
 21
-34.512
  0
LINE
  8
0
 10
144.548
 11
144.608
 20
-34.512
 21
-34.274
  0
LINE
  8
0
 10
144.608
 11
144.69
 20
-34.274
 21
-34.043
  0
LINE
  8
0
 10
144.69
 11
144.795
 20
-34.043
 21
-33.822
  0
LINE
  8
0
 10
144.795
 11
144.921
 20
-33.822
 21
-33.611
  0
LINE
  8
0
 10
144.921
 11
145.067
 20
-33.611
 21
-33.414
  0
LINE
  8
0
 10
145.067
 11
145.232
 20
-33.414
 21
-33.232
  0
LINE
  8
0
 10
145.232
 11
145.414
 20
-33.232
 21
-33.067
  0
LINE
  8
0
 10
145.414
 11
145.611
 20
-33.067
 21
-32.921
  0
LINE
  8
0
 10
145.611
 11
145.822
 20
-32.921
 21
-32.795
  0
LINE
  8
0
 10
145.822
 11
146.043
 20
-32.795
 21
-32.69
  0
LINE
  8
0
 10
146.043
 11
146.274
 20
-32.69
 21
-32.608
  0
LINE
  8
0
 10
146.274
 11
146.512
 20
-32.608
 21
-32.548
  0
LINE
  8
0
 10
146.512
 11
146.755
 20
-32.548
 21
-32.512
  0
LINE
  8
0
 10
146.755
 11
147
 20
-32.512
 21
-32.5
  0
LINE
  8
0
 10
147
 11
147.245
 20
-32.5
 21
-32.512
  0
LINE
  8
0
 10
147.245
 11
147.488
 20
-32.512
 21
-32.548
  0
LINE
  8
0
 10
147.488
 11
147.726
 20
-32.548
 21
-32.608
  0
LINE
  8
0
 10
147.726
 11
147.957
 20
-32.608
 21
-32.69
  0
LINE
  8
0
 10
147.957
 11
148.178
 20
-32.69
 21
-32.795
  0
LINE
  8
0
 10
148.178
 11
148.389
 20
-32.795
 21
-32.921
  0
LINE
  8
0
 10
148.389
 11
148.586
 20
-32.921
 21
-33.067
  0
LINE
  8
0
 10
148.586
 11
148.768
 20
-33.067
 21
-33.232
  0
LINE
  8
0
 10
148.768
 11
148.933
 20
-33.232
 21
-33.414
  0
LINE
  8
0
 10
148.933
 11
149.079
 20
-33.414
 21
-33.611
  0
LINE
  8
0
 10
149.079
 11
149.205
 20
-33.611
 21
-33.822
  0
LINE
  8
0
 10
149.205
 11
149.31
 20
-33.822
 21
-34.043
  0
LINE
  8
0
 10
149.31
 11
149.392
 20
-34.043
 21
-34.274
  0
LINE
  8
0
 10
149.392
 11
149.452
 20
-34.274
 21
-34.512
  0
LINE
  8
0
 10
149.452
 11
149.488
 20
-34.512
 21
-34.755
  0
LINE
  8
0
 10
149.488
 11
149.5
 20
-34.755
 21
-35
  0
LINE
  8
0
 10
149.5
 11
149.488
 20
-35
 21
-35.245
  0
LINE
  8
0
 10
149.488
 11
149.452
 20
-35.245
 21
-35.488
  0
LINE
  8
0
 10
149.452
 11
149.392
 20
-35.488
 21
-35.726
  0
LINE
  8
0
 10
149.392
 11
149.31
 20
-35.726
 21
-35.957
  0
LINE
  8
0
 10
149.31
 11
149.205
 20
-35.957
 21
-36.178
  0
LINE
  8
0
 10
149.205
 11
149.079
 20
-36.178
 21
-36.389
  0
LINE
  8
0
 10
149.079
 11
148.933
 20
-36.389
 21
-36.586
  0
LINE
  8
0
 10
148.933
 11
148.768
 20
-36.586
 21
-36.768
  0
LINE
  8
0
 10
148.768
 11
148.586
 20
-36.768
 21
-36.933
  0
LINE
  8
0
 10
148.586
 11
148.389
 20
-36.933
 21
-37.079
  0
LINE
  8
0
 10
148.389
 11
148.178
 20
-37.079
 21
-37.205
  0
LINE
  8
0
 10
148.178
 11
147.957
 20
-37.205
 21
-37.31
  0
LINE
  8
0
 10
147.957
 11
147.726
 20
-37.31
 21
-37.392
  0
LINE
  8
0
 10
147.726
 11
147.488
 20
-37.392
 21
-37.452
  0
LINE
  8
0
 10
147.488
 11
147.245
 20
-37.452
 21
-37.488
  0
LINE
  8
0
 10
147.245
 11
147
 20
-37.488
 21
-37.5
  0
LINE
  8
0
 10
147
 11
146.755
 20
-37.5
 21
-37.488
  0
LINE
  8
0
 10
146.755
 11
146.512
 20
-37.488
 21
-37.452
  0
LINE
  8
0
 10
146.512
 11
146.274
 20
-37.452
 21
-37.392
  0
LINE
  8
0
 10
146.274
 11
146.043
 20
-37.392
 21
-37.31
  0
LINE
  8
0
 10
146.043
 11
145.822
 20
-37.31
 21
-37.205
  0
LINE
  8
0
 10
145.822
 11
145.611
 20
-37.205
 21
-37.079
  0
LINE
  8
0
 10
145.611
 11
145.414
 20
-37.079
 21
-36.933
  0
LINE
  8
0
 10
145.414
 11
145.232
 20
-36.933
 21
-36.768
  0
LINE
  8
0
 10
145.232
 11
145.067
 20
-36.768
 21
-36.586
  0
LINE
  8
0
 10
145.067
 11
144.921
 20
-36.586
 21
-36.389
  0
LINE
  8
0
 10
144.921
 11
144.795
 20
-36.389
 21
-36.178
  0
LINE
  8
0
 10
144.795
 11
144.69
 20
-36.178
 21
-35.957
  0
LINE
  8
0
 10
144.69
 11
144.608
 20
-35.957
 21
-35.726
  0
LINE
  8
0
 10
144.608
 11
144.548
 20
-35.726
 21
-35.488
  0
LINE
  8
0
 10
144.548
 11
144.512
 20
-35.488
 21
-35.245
  0
LINE
  8
0
 10
144.512
 11
144.5
 20
-35.245
 21
-35
  0
LINE
  8
0
 10
144.5
 11
144.512
 20
-27
 21
-26.755
  0
LINE
  8
0
 10
144.512
 11
144.548
 20
-26.755
 21
-26.512
  0
LINE
  8
0
 10
144.548
 11
144.608
 20
-26.512
 21
-26.274
  0
LINE
  8
0
 10
144.608
 11
144.69
 20
-26.274
 21
-26.043
  0
LINE
  8
0
 10
144.69
 11
144.795
 20
-26.043
 21
-25.822
  0
LINE
  8
0
 10
144.795
 11
144.921
 20
-25.822
 21
-25.611
  0
LINE
  8
0
 10
144.921
 11
145.067
 20
-25.611
 21
-25.414
  0
LINE
  8
0
 10
145.067
 11
145.232
 20
-25.414
 21
-25.232
  0
LINE
  8
0
 10
145.232
 11
145.414
 20
-25.232
 21
-25.067
  0
LINE
  8
0
 10
145.414
 11
145.611
 20
-25.067
 21
-24.921
  0
LINE
  8
0
 10
145.611
 11
145.822
 20
-24.921
 21
-24.795
  0
LINE
  8
0
 10
145.822
 11
146.043
 20
-24.795
 21
-24.69
  0
LINE
  8
0
 10
146.043
 11
146.274
 20
-24.69
 21
-24.608
  0
LINE
  8
0
 10
146.274
 11
146.512
 20
-24.608
 21
-24.548
  0
LINE
  8
0
 10
146.512
 11
146.755
 20
-24.548
 21
-24.512
  0
LINE
  8
0
 10
146.755
 11
147
 20
-24.512
 21
-24.5
  0
LINE
  8
0
 10
147
 11
147.245
 20
-24.5
 21
-24.512
  0
LINE
  8
0
 10
147.245
 11
147.488
 20
-24.512
 21
-24.548
  0
LINE
  8
0
 10
147.488
 11
147.726
 20
-24.548
 21
-24.608
  0
LINE
  8
0
 10
147.726
 11
147.957
 20
-24.608
 21
-24.69
  0
LINE
  8
0
 10
147.957
 11
148.178
 20
-24.69
 21
-24.795
  0
LINE
  8
0
 10
148.178
 11
148.389
 20
-24.795
 21
-24.921
  0
LINE
  8
0
 10
148.389
 11
148.586
 20
-24.921
 21
-25.067
  0
LINE
  8
0
 10
148.586
 11
148.768
 20
-25.067
 21
-25.232
  0
LINE
  8
0
 10
148.768
 11
148.933
 20
-25.232
 21
-25.414
  0
LINE
  8
0
 10
148.933
 11
149.079
 20
-25.414
 21
-25.611
  0
LINE
  8
0
 10
149.079
 11
149.205
 20
-25.611
 21
-25.822
  0
LINE
  8
0
 10
149.205
 11
149.31
 20
-25.822
 21
-26.043
  0
LINE
  8
0
 10
149.31
 11
149.392
 20
-26.043
 21
-26.274
  0
LINE
  8
0
 10
149.392
 11
149.452
 20
-26.274
 21
-26.512
  0
LINE
  8
0
 10
149.452
 11
149.488
 20
-26.512
 21
-26.755
  0
LINE
  8
0
 10
149.488
 11
149.5
 20
-26.755
 21
-27
  0
LINE
  8
0
 10
149.5
 11
149.488
 20
-27
 21
-27.245
  0
LINE
  8
0
 10
149.488
 11
149.452
 20
-27.245
 21
-27.488
  0
LINE
  8
0
 10
149.452
 11
149.392
 20
-27.488
 21
-27.726
  0
LINE
  8
0
 10
149.392
 11
149.31
 20
-27.726
 21
-27.957
  0
LINE
  8
0
 10
149.31
 11
149.205
 20
-27.957
 21
-28.178
  0
LINE
  8
0
 10
149.205
 11
149.079
 20
-28.178
 21
-28.389
  0
LINE
  8
0
 10
149.079
 11
148.933
 20
-28.389
 21
-28.586
  0
LINE
  8
0
 10
148.933
 11
148.768
 20
-28.586
 21
-28.768
  0
LINE
  8
0
 10
148.768
 11
148.586
 20
-28.768
 21
-28.933
  0
LINE
  8
0
 10
148.586
 11
148.389
 20
-28.933
 21
-29.079
  0
LINE
  8
0
 10
148.389
 11
148.178
 20
-29.079
 21
-29.205
  0
LINE
  8
0
 10
148.178
 11
147.957
 20
-29.205
 21
-29.31
  0
LINE
  8
0
 10
147.957
 11
147.726
 20
-29.31
 21
-29.392
  0
LINE
  8
0
 10
147.726
 11
147.488
 20
-29.392
 21
-29.452
  0
LINE
  8
0
 10
147.488
 11
147.245
 20
-29.452
 21
-29.488
  0
LINE
  8
0
 10
147.245
 11
147
 20
-29.488
 21
-29.5
  0
LINE
  8
0
 10
147
 11
146.755
 20
-29.5
 21
-29.488
  0
LINE
  8
0
 10
146.755
 11
146.512
 20
-29.488
 21
-29.452
  0
LINE
  8
0
 10
146.512
 11
146.274
 20
-29.452
 21
-29.392
  0
LINE
  8
0
 10
146.274
 11
146.043
 20
-29.392
 21
-29.31
  0
LINE
  8
0
 10
146.043
 11
145.822
 20
-29.31
 21
-29.205
  0
LINE
  8
0
 10
145.822
 11
145.611
 20
-29.205
 21
-29.079
  0
LINE
  8
0
 10
145.611
 11
145.414
 20
-29.079
 21
-28.933
  0
LINE
  8
0
 10
145.414
 11
145.232
 20
-28.933
 21
-28.768
  0
LINE
  8
0
 10
145.232
 11
145.067
 20
-28.768
 21
-28.586
  0
LINE
  8
0
 10
145.067
 11
144.921
 20
-28.586
 21
-28.389
  0
LINE
  8
0
 10
144.921
 11
144.795
 20
-28.389
 21
-28.178
  0
LINE
  8
0
 10
144.795
 11
144.69
 20
-28.178
 21
-27.957
  0
LINE
  8
0
 10
144.69
 11
144.608
 20
-27.957
 21
-27.726
  0
LINE
  8
0
 10
144.608
 11
144.548
 20
-27.726
 21
-27.488
  0
LINE
  8
0
 10
144.548
 11
144.512
 20
-27.488
 21
-27.245
  0
LINE
  8
0
 10
144.512
 11
144.5
 20
-27.245
 21
-27
  0
LINE
  8
0
 10
160
 11
160
 20
20
 21
40
  0
LINE
  8
0
 10
160
 11
163
 20
40
 21
40
  0
LINE
  8
0
 10
163
 11
163
 20
40
 21
20
  0
LINE
  8
0
 10
163
 11
160
 20
20
 21
20
  0
LINE
  8
0
 10
157.5
 11
157.5
 20
-40
 21
70
  0
LINE
  8
0
 10
157.5
 11
157.881
 20
70
 21
71.913
  0
LINE
  8
0
 10
157.881
 11
158.964
 20
71.913
 21
73.536
  0
LINE
  8
0
 10
158.964
 11
160.587
 20
73.536
 21
74.619
  0
LINE
  8
0
 10
160.587
 11
162.5
 20
74.619
 21
75
  0
LINE
  8
0
 10
162.5
 11
247.5
 20
75
 21
75
  0
LINE
  8
0
 10
247.5
 11
249.413
 20
75
 21
74.619
  0
LINE
  8
0
 10
249.413
 11
251.036
 20
74.619
 21
73.536
  0
LINE
  8
0
 10
251.036
 11
252.119
 20
73.536
 21
71.913
  0
LINE
  8
0
 10
252.119
 11
252.5
 20
71.913
 21
70
  0
LINE
  8
0
 10
252.5
 11
252.5
 20
70
 21
-40
  0
LINE
  8
0
 10
252.5
 11
252.119
 20
-40
 21
-41.913
  0
LINE
  8
0
 10
252.119
 11
251.036
 20
-41.913
 21
-43.536
  0
LINE
  8
0
 10
251.036
 11
249.413
 20
-43.536
 21
-44.619
  0
LINE
  8
0
 10
249.413
 11
247.5
 20
-44.619
 21
-45
  0
LINE
  8
0
 10
247.5
 11
162.5
 20
-45
 21
-45
  0
LINE
  8
0
 10
162.5
 11
160.587
 20
-45
 21
-44.619
  0
LINE
  8
0
 10
160.587
 11
158.964
 20
-44.619
 21
-43.536
  0
LINE
  8
0
 10
158.964
 11
157.881
 20
-43.536
 21
-41.913
  0
LINE
  8
0
 10
157.881
 11
157.5
 20
-41.913
 21
-40
  0
LINE
  8
0
 10
161
 11
161.01
 20
-40
 21
-39.804
  0
LINE
  8
0
 10
161.01
 11
161.038
 20
-39.804
 21
-39.61
  0
LINE
  8
0
 10
161.038
 11
161.086
 20
-39.61
 21
-39.419
  0
LINE
  8
0
 10
161.086
 11
161.152
 20
-39.419
 21
-39.235
  0
LINE
  8
0
 10
161.152
 11
161.236
 20
-39.235
 21
-39.057
  0
LINE
  8
0
 10
161.236
 11
161.337
 20
-39.057
 21
-38.889
  0
LINE
  8
0
 10
161.337
 11
161.454
 20
-38.889
 21
-38.731
  0
LINE
  8
0
 10
161.454
 11
161.586
 20
-38.731
 21
-38.586
  0
LINE
  8
0
 10
161.586
 11
161.731
 20
-38.586
 21
-38.454
  0
LINE
  8
0
 10
161.731
 11
161.889
 20
-38.454
 21
-38.337
  0
LINE
  8
0
 10
161.889
 11
162.057
 20
-38.337
 21
-38.236
  0
LINE
  8
0
 10
162.057
 11
162.235
 20
-38.236
 21
-38.152
  0
LINE
  8
0
 10
162.235
 11
162.419
 20
-38.152
 21
-38.086
  0
LINE
  8
0
 10
162.419
 11
162.61
 20
-38.086
 21
-38.038
  0
LINE
  8
0
 10
162.61
 11
162.804
 20
-38.038
 21
-38.01
  0
LINE
  8
0
 10
162.804
 11
163
 20
-38.01
 21
-38
  0
LINE
  8
0
 10
163
 11
163.196
 20
-38
 21
-38.01
  0
LINE
  8
0
 10
163.196
 11
163.39
 20
-38.01
 21
-38.038
  0
LINE
  8
0
 10
163.39
 11
163.581
 20
-38.038
 21
-38.086
  0
LINE
  8
0
 10
163.581
 11
163.765
 20
-38.086
 21
-38.152
  0
LINE
  8
0
 10
163.765
 11
163.943
 20
-38.152
 21
-38.236
  0
LINE
  8
0
 10
163.943
 11
164.111
 20
-38.236
 21
-38.337
  0
LINE
  8
0
 10
164.111
 11
164.269
 20
-38.337
 21
-38.454
  0
LINE
  8
0
 10
164.269
 11
164.414
 20
-38.454
 21
-38.586
  0
LINE
  8
0
 10
164.414
 11
164.546
 20
-38.586
 21
-38.731
  0
LINE
  8
0
 10
164.546
 11
164.663
 20
-38.731
 21
-38.889
  0
LINE
  8
0
 10
164.663
 11
164.764
 20
-38.889
 21
-39.057
  0
LINE
  8
0
 10
164.764
 11
164.848
 20
-39.057
 21
-39.235
  0
LINE
  8
0
 10
164.848
 11
164.914
 20
-39.235
 21
-39.419
  0
LINE
  8
0
 10
164.914
 11
164.962
 20
-39.419
 21
-39.61
  0
LINE
  8
0
 10
164.962
 11
164.99
 20
-39.61
 21
-39.804
  0
LINE
  8
0
 10
164.99
 11
165
 20
-39.804
 21
-40
  0
LINE
  8
0
 10
165
 11
164.99
 20
-40
 21
-40.196
  0
LINE
  8
0
 10
164.99
 11
164.962
 20
-40.196
 21
-40.39
  0
LINE
  8
0
 10
164.962
 11
164.914
 20
-40.39
 21
-40.581
  0
LINE
  8
0
 10
164.914
 11
164.848
 20
-40.581
 21
-40.765
  0
LINE
  8
0
 10
164.848
 11
164.764
 20
-40.765
 21
-40.943
  0
LINE
  8
0
 10
164.764
 11
164.663
 20
-40.943
 21
-41.111
  0
LINE
  8
0
 10
164.663
 11
164.546
 20
-41.111
 21
-41.269
  0
LINE
  8
0
 10
164.546
 11
164.414
 20
-41.269
 21
-41.414
  0
LINE
  8
0
 10
164.414
 11
164.269
 20
-41.414
 21
-41.546
  0
LINE
  8
0
 10
164.269
 11
164.111
 20
-41.546
 21
-41.663
  0
LINE
  8
0
 10
164.111
 11
163.943
 20
-41.663
 21
-41.764
  0
LINE
  8
0
 10
163.943
 11
163.765
 20
-41.764
 21
-41.848
  0
LINE
  8
0
 10
163.765
 11
163.581
 20
-41.848
 21
-41.914
  0
LINE
  8
0
 10
163.581
 11
163.39
 20
-41.914
 21
-41.962
  0
LINE
  8
0
 10
163.39
 11
163.196
 20
-41.962
 21
-41.99
  0
LINE
  8
0
 10
163.196
 11
163
 20
-41.99
 21
-42
  0
LINE
  8
0
 10
163
 11
162.804
 20
-42
 21
-41.99
  0
LINE
  8
0
 10
162.804
 11
162.61
 20
-41.99
 21
-41.962
  0
LINE
  8
0
 10
162.61
 11
162.419
 20
-41.962
 21
-41.914
  0
LINE
  8
0
 10
162.419
 11
162.235
 20
-41.914
 21
-41.848
  0
LINE
  8
0
 10
162.235
 11
162.057
 20
-41.848
 21
-41.764
  0
LINE
  8
0
 10
162.057
 11
161.889
 20
-41.764
 21
-41.663
  0
LINE
  8
0
 10
161.889
 11
161.731
 20
-41.663
 21
-41.546
  0
LINE
  8
0
 10
161.731
 11
161.586
 20
-41.546
 21
-41.414
  0
LINE
  8
0
 10
161.586
 11
161.454
 20
-41.414
 21
-41.269
  0
LINE
  8
0
 10
161.454
 11
161.337
 20
-41.269
 21
-41.111
  0
LINE
  8
0
 10
161.337
 11
161.236
 20
-41.111
 21
-40.943
  0
LINE
  8
0
 10
161.236
 11
161.152
 20
-40.943
 21
-40.765
  0
LINE
  8
0
 10
161.152
 11
161.086
 20
-40.765
 21
-40.581
  0
LINE
  8
0
 10
161.086
 11
161.038
 20
-40.581
 21
-40.39
  0
LINE
  8
0
 10
161.038
 11
161.01
 20
-40.39
 21
-40.196
  0
LINE
  8
0
 10
161.01
 11
161
 20
-40.196
 21
-40
  0
LINE
  8
0
 10
161
 11
161.01
 20
70
 21
70.196
  0
LINE
  8
0
 10
161.01
 11
161.038
 20
70.196
 21
70.39
  0
LINE
  8
0
 10
161.038
 11
161.086
 20
70.39
 21
70.581
  0
LINE
  8
0
 10
161.086
 11
161.152
 20
70.581
 21
70.765
  0
LINE
  8
0
 10
161.152
 11
161.236
 20
70.765
 21
70.943
  0
LINE
  8
0
 10
161.236
 11
161.337
 20
70.943
 21
71.111
  0
LINE
  8
0
 10
161.337
 11
161.454
 20
71.111
 21
71.269
  0
LINE
  8
0
 10
161.454
 11
161.586
 20
71.269
 21
71.414
  0
LINE
  8
0
 10
161.586
 11
161.731
 20
71.414
 21
71.546
  0
LINE
  8
0
 10
161.731
 11
161.889
 20
71.546
 21
71.663
  0
LINE
  8
0
 10
161.889
 11
162.057
 20
71.663
 21
71.764
  0
LINE
  8
0
 10
162.057
 11
162.235
 20
71.764
 21
71.848
  0
LINE
  8
0
 10
162.235
 11
162.419
 20
71.848
 21
71.914
  0
LINE
  8
0
 10
162.419
 11
162.61
 20
71.914
 21
71.962
  0
LINE
  8
0
 10
162.61
 11
162.804
 20
71.962
 21
71.99
  0
LINE
  8
0
 10
162.804
 11
163
 20
71.99
 21
72
  0
LINE
  8
0
 10
163
 11
163.196
 20
72
 21
71.99
  0
LINE
  8
0
 10
163.196
 11
163.39
 20
71.99
 21
71.962
  0
LINE
  8
0
 10
163.39
 11
163.581
 20
71.962
 21
71.914
  0
LINE
  8
0
 10
163.581
 11
163.765
 20
71.914
 21
71.848
  0
LINE
  8
0
 10
163.765
 11
163.943
 20
71.848
 21
71.764
  0
LINE
  8
0
 10
163.943
 11
164.111
 20
71.764
 21
71.663
  0
LINE
  8
0
 10
164.111
 11
164.269
 20
71.663
 21
71.546
  0
LINE
  8
0
 10
164.269
 11
164.414
 20
71.546
 21
71.414
  0
LINE
  8
0
 10
164.414
 11
164.546
 20
71.414
 21
71.269
  0
LINE
  8
0
 10
164.546
 11
164.663
 20
71.269
 21
71.111
  0
LINE
  8
0
 10
164.663
 11
164.764
 20
71.111
 21
70.943
  0
LINE
  8
0
 10
164.764
 11
164.848
 20
70.943
 21
70.765
  0
LINE
  8
0
 10
164.848
 11
164.914
 20
70.765
 21
70.581
  0
LINE
  8
0
 10
164.914
 11
164.962
 20
70.581
 21
70.39
  0
LINE
  8
0
 10
164.962
 11
164.99
 20
70.39
 21
70.196
  0
LINE
  8
0
 10
164.99
 11
165
 20
70.196
 21
70
  0
LINE
  8
0
 10
165
 11
164.99
 20
70
 21
69.804
  0
LINE
  8
0
 10
164.99
 11
164.962
 20
69.804
 21
69.61
  0
LINE
  8
0
 10
164.962
 11
164.914
 20
69.61
 21
69.419
  0
LINE
  8
0
 10
164.914
 11
164.848
 20
69.419
 21
69.235
  0
LINE
  8
0
 10
164.848
 11
164.764
 20
69.235
 21
69.057
  0
LINE
  8
0
 10
164.764
 11
164.663
 20
69.057
 21
68.889
  0
LINE
  8
0
 10
164.663
 11
164.546
 20
68.889
 21
68.731
  0
LINE
  8
0
 10
164.546
 11
164.414
 20
68.731
 21
68.586
  0
LINE
  8
0
 10
164.414
 11
164.269
 20
68.586
 21
68.454
  0
LINE
  8
0
 10
164.269
 11
164.111
 20
68.454
 21
68.337
  0
LINE
  8
0
 10
164.111
 11
163.943
 20
68.337
 21
68.236
  0
LINE
  8
0
 10
163.943
 11
163.765
 20
68.236
 21
68.152
  0
LINE
  8
0
 10
163.765
 11
163.581
 20
68.152
 21
68.086
  0
LINE
  8
0
 10
163.581
 11
163.39
 20
68.086
 21
68.038
  0
LINE
  8
0
 10
163.39
 11
163.196
 20
68.038
 21
68.01
  0
LINE
  8
0
 10
163.196
 11
163
 20
68.01
 21
68
  0
LINE
  8
0
 10
163
 11
162.804
 20
68
 21
68.01
  0
LINE
  8
0
 10
162.804
 11
162.61
 20
68.01
 21
68.038
  0
LINE
  8
0
 10
162.61
 11
162.419
 20
68.038
 21
68.086
  0
LINE
  8
0
 10
162.419
 11
162.235
 20
68.086
 21
68.152
  0
LINE
  8
0
 10
162.235
 11
162.057
 20
68.152
 21
68.236
  0
LINE
  8
0
 10
162.057
 11
161.889
 20
68.236
 21
68.337
  0
LINE
  8
0
 10
161.889
 11
161.731
 20
68.337
 21
68.454
  0
LINE
  8
0
 10
161.731
 11
161.586
 20
68.454
 21
68.586
  0
LINE
  8
0
 10
161.586
 11
161.454
 20
68.586
 21
68.731
  0
LINE
  8
0
 10
161.454
 11
161.337
 20
68.731
 21
68.889
  0
LINE
  8
0
 10
161.337
 11
161.236
 20
68.889
 21
69.057
  0
LINE
  8
0
 10
161.236
 11
161.152
 20
69.057
 21
69.235
  0
LINE
  8
0
 10
161.152
 11
161.086
 20
69.235
 21
69.419
  0
LINE
  8
0
 10
161.086
 11
161.038
 20
69.419
 21
69.61
  0
LINE
  8
0
 10
161.038
 11
161.01
 20
69.61
 21
69.804
  0
LINE
  8
0
 10
161.01
 11
161
 20
69.804
 21
70
  0
LINE
  8
0
 10
172.5
 11
172.547
 20
-9.75
 21
-9.377
  0
LINE
  8
0
 10
172.547
 11
172.686
 20
-9.377
 21
-9.027
  0
LINE
  8
0
 10
172.686
 11
172.907
 20
-9.027
 21
-8.723
  0
LINE
  8
0
 10
172.907
 11
173.196
 20
-8.723
 21
-8.484
  0
LINE
  8
0
 10
173.196
 11
173.536
 20
-8.484
 21
-8.323
  0
LINE
  8
0
 10
173.536
 11
173.906
 20
-8.323
 21
-8.253
  0
LINE
  8
0
 10
173.906
 11
174.281
 20
-8.253
 21
-8.277
  0
LINE
  8
0
 10
174.281
 11
174.639
 20
-8.277
 21
-8.393
  0
LINE
  8
0
 10
174.639
 11
174.956
 20
-8.393
 21
-8.594
  0
LINE
  8
0
 10
174.956
 11
175.214
 20
-8.594
 21
-8.868
  0
LINE
  8
0
 10
175.214
 11
175.395
 20
-8.868
 21
-9.198
  0
LINE
  8
0
 10
175.395
 11
175.488
 20
-9.198
 21
-9.562
  0
LINE
  8
0
 10
175.488
 11
175.488
 20
-9.562
 21
-9.938
  0
LINE
  8
0
 10
175.488
 11
175.395
 20
-9.938
 21
-10.302
  0
LINE
  8
0
 10
175.395
 11
175.214
 20
-10.302
 21
-10.632
  0
LINE
  8
0
 10
175.214
 11
174.956
 20
-10.632
 21
-10.906
  0
LINE
  8
0
 10
174.956
 11
174.639
 20
-10.906
 21
-11.107
  0
LINE
  8
0
 10
174.639
 11
174.281
 20
-11.107
 21
-11.223
  0
LINE
  8
0
 10
174.281
 11
173.906
 20
-11.223
 21
-11.247
  0
LINE
  8
0
 10
173.906
 11
173.536
 20
-11.247
 21
-11.177
  0
LINE
  8
0
 10
173.536
 11
173.196
 20
-11.177
 21
-11.016
  0
LINE
  8
0
 10
173.196
 11
172.907
 20
-11.016
 21
-10.777
  0
LINE
  8
0
 10
172.907
 11
172.686
 20
-10.777
 21
-10.473
  0
LINE
  8
0
 10
172.686
 11
172.547
 20
-10.473
 21
-10.123
  0
LINE
  8
0
 10
172.547
 11
172.5
 20
-10.123
 21
-9.75
  0
LINE
  8
0
 10
172.5
 11
172.547
 20
18.25
 21
18.623
  0
LINE
  8
0
 10
172.547
 11
172.686
 20
18.623
 21
18.973
  0
LINE
  8
0
 10
172.686
 11
172.907
 20
18.973
 21
19.277
  0
LINE
  8
0
 10
172.907
 11
173.196
 20
19.277
 21
19.516
  0
LINE
  8
0
 10
173.196
 11
173.536
 20
19.516
 21
19.677
  0
LINE
  8
0
 10
173.536
 11
173.906
 20
19.677
 21
19.747
  0
LINE
  8
0
 10
173.906
 11
174.281
 20
19.747
 21
19.723
  0
LINE
  8
0
 10
174.281
 11
174.639
 20
19.723
 21
19.607
  0
LINE
  8
0
 10
174.639
 11
174.956
 20
19.607
 21
19.406
  0
LINE
  8
0
 10
174.956
 11
175.214
 20
19.406
 21
19.132
  0
LINE
  8
0
 10
175.214
 11
175.395
 20
19.132
 21
18.802
  0
LINE
  8
0
 10
175.395
 11
175.488
 20
18.802
 21
18.438
  0
LINE
  8
0
 10
175.488
 11
175.488
 20
18.438
 21
18.062
  0
LINE
  8
0
 10
175.488
 11
175.395
 20
18.062
 21
17.698
  0
LINE
  8
0
 10
175.395
 11
175.214
 20
17.698
 21
17.368
  0
LINE
  8
0
 10
175.214
 11
174.956
 20
17.368
 21
17.094
  0
LINE
  8
0
 10
174.956
 11
174.639
 20
17.094
 21
16.893
  0
LINE
  8
0
 10
174.639
 11
174.281
 20
16.893
 21
16.777
  0
LINE
  8
0
 10
174.281
 11
173.906
 20
16.777
 21
16.753
  0
LINE
  8
0
 10
173.906
 11
173.536
 20
16.753
 21
16.823
  0
LINE
  8
0
 10
173.536
 11
173.196
 20
16.823
 21
16.984
  0
LINE
  8
0
 10
173.196
 11
172.907
 20
16.984
 21
17.223
  0
LINE
  8
0
 10
172.907
 11
172.686
 20
17.223
 21
17.527
  0
LINE
  8
0
 10
172.686
 11
172.547
 20
17.527
 21
17.877
  0
LINE
  8
0
 10
172.547
 11
172.5
 20
17.877
 21
18.25
  0
LINE
  8
0
 10
195
 11
195
 20
-40
 21
-37
  0
LINE
  8
0
 10
195
 11
215
 20
-37
 21
-37
  0
LINE
  8
0
 10
215
 11
215
 20
-37
 21
-40
  0
LINE
  8
0
 10
215
 11
195
 20
-40
 21
-40
  0
LINE
  8
0
 10
223.5
 11
223.547
 20
-25
 21
-24.627
  0
LINE
  8
0
 10
223.547
 11
223.686
 20
-24.627
 21
-24.277
  0
LINE
  8
0
 10
223.686
 11
223.907
 20
-24.277
 21
-23.973
  0
LINE
  8
0
 10
223.907
 11
224.196
 20
-23.973
 21
-23.734
  0
LINE
  8
0
 10
224.196
 11
224.536
 20
-23.734
 21
-23.573
  0
LINE
  8
0
 10
224.536
 11
224.906
 20
-23.573
 21
-23.503
  0
LINE
  8
0
 10
224.906
 11
225.281
 20
-23.503
 21
-23.527
  0
LINE
  8
0
 10
225.281
 11
225.639
 20
-23.527
 21
-23.643
  0
LINE
  8
0
 10
225.639
 11
225.956
 20
-23.643
 21
-23.844
  0
LINE
  8
0
 10
225.956
 11
226.214
 20
-23.844
 21
-24.118
  0
LINE
  8
0
 10
226.214
 11
226.395
 20
-24.118
 21
-24.448
  0
LINE
  8
0
 10
226.395
 11
226.488
 20
-24.448
 21
-24.812
  0
LINE
  8
0
 10
226.488
 11
226.488
 20
-24.812
 21
-25.188
  0
LINE
  8
0
 10
226.488
 11
226.395
 20
-25.188
 21
-25.552
  0
LINE
  8
0
 10
226.395
 11
226.214
 20
-25.552
 21
-25.882
  0
LINE
  8
0
 10
226.214
 11
225.956
 20
-25.882
 21
-26.156
  0
LINE
  8
0
 10
225.956
 11
225.639
 20
-26.156
 21
-26.357
  0
LINE
  8
0
 10
225.639
 11
225.281
 20
-26.357
 21
-26.473
  0
LINE
  8
0
 10
225.281
 11
224.906
 20
-26.473
 21
-26.497
  0
LINE
  8
0
 10
224.906
 11
224.536
 20
-26.497
 21
-26.427
  0
LINE
  8
0
 10
224.536
 11
224.196
 20
-26.427
 21
-26.266
  0
LINE
  8
0
 10
224.196
 11
223.907
 20
-26.266
 21
-26.027
  0
LINE
  8
0
 10
223.907
 11
223.686
 20
-26.027
 21
-25.723
  0
LINE
  8
0
 10
223.686
 11
223.547
 20
-25.723
 21
-25.373
  0
LINE
  8
0
 10
223.547
 11
223.5
 20
-25.373
 21
-25
  0
LINE
  8
0
 10
224.593
 11
224.64
 20
23.403
 21
23.776
  0
LINE
  8
0
 10
224.64
 11
224.778
 20
23.776
 21
24.125
  0
LINE
  8
0
 10
224.778
 11
224.999
 20
24.125
 21
24.43
  0
LINE
  8
0
 10
224.999
 11
225.289
 20
24.43
 21
24.669
  0
LINE
  8
0
 10
225.289
 11
225.629
 20
24.669
 21
24.829
  0
LINE
  8
0
 10
225.629
 11
225.999
 20
24.829
 21
24.9
  0
LINE
  8
0
 10
225.999
 11
226.374
 20
24.9
 21
24.876
  0
LINE
  8
0
 10
226.374
 11
226.732
 20
24.876
 21
24.76
  0
LINE
  8
0
 10
226.732
 11
227.049
 20
24.76
 21
24.558
  0
LINE
  8
0
 10
227.049
 11
227.306
 20
24.558
 21
24.284
  0
LINE
  8
0
 10
227.306
 11
227.488
 20
24.284
 21
23.955
  0
LINE
  8
0
 10
227.488
 11
227.581
 20
23.955
 21
23.591
  0
LINE
  8
0
 10
227.581
 11
227.581
 20
23.591
 21
23.215
  0
LINE
  8
0
 10
227.581
 11
227.488
 20
23.215
 21
22.851
  0
LINE
  8
0
 10
227.488
 11
227.306
 20
22.851
 21
22.521
  0
LINE
  8
0
 10
227.306
 11
227.049
 20
22.521
 21
22.247
  0
LINE
  8
0
 10
227.049
 11
226.732
 20
22.247
 21
22.045
  0
LINE
  8
0
 10
226.732
 11
226.374
 20
22.045
 21
21.929
  0
LINE
  8
0
 10
226.374
 11
225.999
 20
21.929
 21
21.906
  0
LINE
  8
0
 10
225.999
 11
225.629
 20
21.906
 21
21.976
  0
LINE
  8
0
 10
225.629
 11
225.289
 20
21.976
 21
22.136
  0
LINE
  8
0
 10
225.289
 11
224.999
 20
22.136
 21
22.376
  0
LINE
  8
0
 10
224.999
 11
224.778
 20
22.376
 21
22.68
  0
LINE
  8
0
 10
224.778
 11
224.64
 20
22.68
 21
23.03
  0
LINE
  8
0
 10
224.64
 11
224.593
 20
23.03
 21
23.403
  0
LINE
  8
0
 10
245
 11
245.01
 20
-40
 21
-39.804
  0
LINE
  8
0
 10
245.01
 11
245.038
 20
-39.804
 21
-39.61
  0
LINE
  8
0
 10
245.038
 11
245.086
 20
-39.61
 21
-39.419
  0
LINE
  8
0
 10
245.086
 11
245.152
 20
-39.419
 21
-39.235
  0
LINE
  8
0
 10
245.152
 11
245.236
 20
-39.235
 21
-39.057
  0
LINE
  8
0
 10
245.236
 11
245.337
 20
-39.057
 21
-38.889
  0
LINE
  8
0
 10
245.337
 11
245.454
 20
-38.889
 21
-38.731
  0
LINE
  8
0
 10
245.454
 11
245.586
 20
-38.731
 21
-38.586
  0
LINE
  8
0
 10
245.586
 11
245.731
 20
-38.586
 21
-38.454
  0
LINE
  8
0
 10
245.731
 11
245.889
 20
-38.454
 21
-38.337
  0
LINE
  8
0
 10
245.889
 11
246.057
 20
-38.337
 21
-38.236
  0
LINE
  8
0
 10
246.057
 11
246.235
 20
-38.236
 21
-38.152
  0
LINE
  8
0
 10
246.235
 11
246.419
 20
-38.152
 21
-38.086
  0
LINE
  8
0
 10
246.419
 11
246.61
 20
-38.086
 21
-38.038
  0
LINE
  8
0
 10
246.61
 11
246.804
 20
-38.038
 21
-38.01
  0
LINE
  8
0
 10
246.804
 11
247
 20
-38.01
 21
-38
  0
LINE
  8
0
 10
247
 11
247.196
 20
-38
 21
-38.01
  0
LINE
  8
0
 10
247.196
 11
247.39
 20
-38.01
 21
-38.038
  0
LINE
  8
0
 10
247.39
 11
247.581
 20
-38.038
 21
-38.086
  0
LINE
  8
0
 10
247.581
 11
247.765
 20
-38.086
 21
-38.152
  0
LINE
  8
0
 10
247.765
 11
247.943
 20
-38.152
 21
-38.236
  0
LINE
  8
0
 10
247.943
 11
248.111
 20
-38.236
 21
-38.337
  0
LINE
  8
0
 10
248.111
 11
248.269
 20
-38.337
 21
-38.454
  0
LINE
  8
0
 10
248.269
 11
248.414
 20
-38.454
 21
-38.586
  0
LINE
  8
0
 10
248.414
 11
248.546
 20
-38.586
 21
-38.731
  0
LINE
  8
0
 10
248.546
 11
248.663
 20
-38.731
 21
-38.889
  0
LINE
  8
0
 10
248.663
 11
248.764
 20
-38.889
 21
-39.057
  0
LINE
  8
0
 10
248.764
 11
248.848
 20
-39.057
 21
-39.235
  0
LINE
  8
0
 10
248.848
 11
248.914
 20
-39.235
 21
-39.419
  0
LINE
  8
0
 10
248.914
 11
248.962
 20
-39.419
 21
-39.61
  0
LINE
  8
0
 10
248.962
 11
248.99
 20
-39.61
 21
-39.804
  0
LINE
  8
0
 10
248.99
 11
249
 20
-39.804
 21
-40
  0
LINE
  8
0
 10
249
 11
248.99
 20
-40
 21
-40.196
  0
LINE
  8
0
 10
248.99
 11
248.962
 20
-40.196
 21
-40.39
  0
LINE
  8
0
 10
248.962
 11
248.914
 20
-40.39
 21
-40.581
  0
LINE
  8
0
 10
248.914
 11
248.848
 20
-40.581
 21
-40.765
  0
LINE
  8
0
 10
248.848
 11
248.764
 20
-40.765
 21
-40.943
  0
LINE
  8
0
 10
248.764
 11
248.663
 20
-40.943
 21
-41.111
  0
LINE
  8
0
 10
248.663
 11
248.546
 20
-41.111
 21
-41.269
  0
LINE
  8
0
 10
248.546
 11
248.414
 20
-41.269
 21
-41.414
  0
LINE
  8
0
 10
248.414
 11
248.269
 20
-41.414
 21
-41.546
  0
LINE
  8
0
 10
248.269
 11
248.111
 20
-41.546
 21
-41.663
  0
LINE
  8
0
 10
248.111
 11
247.943
 20
-41.663
 21
-41.764
  0
LINE
  8
0
 10
247.943
 11
247.765
 20
-41.764
 21
-41.848
  0
LINE
  8
0
 10
247.765
 11
247.581
 20
-41.848
 21
-41.914
  0
LINE
  8
0
 10
247.581
 11
247.39
 20
-41.914
 21
-41.962
  0
LINE
  8
0
 10
247.39
 11
247.196
 20
-41.962
 21
-41.99
  0
LINE
  8
0
 10
247.196
 11
247
 20
-41.99
 21
-42
  0
LINE
  8
0
 10
247
 11
246.804
 20
-42
 21
-41.99
  0
LINE
  8
0
 10
246.804
 11
246.61
 20
-41.99
 21
-41.962
  0
LINE
  8
0
 10
246.61
 11
246.419
 20
-41.962
 21
-41.914
  0
LINE
  8
0
 10
246.419
 11
246.235
 20
-41.914
 21
-41.848
  0
LINE
  8
0
 10
246.235
 11
246.057
 20
-41.848
 21
-41.764
  0
LINE
  8
0
 10
246.057
 11
245.889
 20
-41.764
 21
-41.663
  0
LINE
  8
0
 10
245.889
 11
245.731
 20
-41.663
 21
-41.546
  0
LINE
  8
0
 10
245.731
 11
245.586
 20
-41.546
 21
-41.414
  0
LINE
  8
0
 10
245.586
 11
245.454
 20
-41.414
 21
-41.269
  0
LINE
  8
0
 10
245.454
 11
245.337
 20
-41.269
 21
-41.111
  0
LINE
  8
0
 10
245.337
 11
245.236
 20
-41.111
 21
-40.943
  0
LINE
  8
0
 10
245.236
 11
245.152
 20
-40.943
 21
-40.765
  0
LINE
  8
0
 10
245.152
 11
245.086
 20
-40.765
 21
-40.581
  0
LINE
  8
0
 10
245.086
 11
245.038
 20
-40.581
 21
-40.39
  0
LINE
  8
0
 10
245.038
 11
245.01
 20
-40.39
 21
-40.196
  0
LINE
  8
0
 10
245.01
 11
245
 20
-40.196
 21
-40
  0
LINE
  8
0
 10
245
 11
245.01
 20
70
 21
70.196
  0
LINE
  8
0
 10
245.01
 11
245.038
 20
70.196
 21
70.39
  0
LINE
  8
0
 10
245.038
 11
245.086
 20
70.39
 21
70.581
  0
LINE
  8
0
 10
245.086
 11
245.152
 20
70.581
 21
70.765
  0
LINE
  8
0
 10
245.152
 11
245.236
 20
70.765
 21
70.943
  0
LINE
  8
0
 10
245.236
 11
245.337
 20
70.943
 21
71.111
  0
LINE
  8
0
 10
245.337
 11
245.454
 20
71.111
 21
71.269
  0
LINE
  8
0
 10
245.454
 11
245.586
 20
71.269
 21
71.414
  0
LINE
  8
0
 10
245.586
 11
245.731
 20
71.414
 21
71.546
  0
LINE
  8
0
 10
245.731
 11
245.889
 20
71.546
 21
71.663
  0
LINE
  8
0
 10
245.889
 11
246.057
 20
71.663
 21
71.764
  0
LINE
  8
0
 10
246.057
 11
246.235
 20
71.764
 21
71.848
  0
LINE
  8
0
 10
246.235
 11
246.419
 20
71.848
 21
71.914
  0
LINE
  8
0
 10
246.419
 11
246.61
 20
71.914
 21
71.962
  0
LINE
  8
0
 10
246.61
 11
246.804
 20
71.962
 21
71.99
  0
LINE
  8
0
 10
246.804
 11
247
 20
71.99
 21
72
  0
LINE
  8
0
 10
247
 11
247.196
 20
72
 21
71.99
  0
LINE
  8
0
 10
247.196
 11
247.39
 20
71.99
 21
71.962
  0
LINE
  8
0
 10
247.39
 11
247.581
 20
71.962
 21
71.914
  0
LINE
  8
0
 10
247.581
 11
247.765
 20
71.914
 21
71.848
  0
LINE
  8
0
 10
247.765
 11
247.943
 20
71.848
 21
71.764
  0
LINE
  8
0
 10
247.943
 11
248.111
 20
71.764
 21
71.663
  0
LINE
  8
0
 10
248.111
 11
248.269
 20
71.663
 21
71.546
  0
LINE
  8
0
 10
248.269
 11
248.414
 20
71.546
 21
71.414
  0
LINE
  8
0
 10
248.414
 11
248.546
 20
71.414
 21
71.269
  0
LINE
  8
0
 10
248.546
 11
248.663
 20
71.269
 21
71.111
  0
LINE
  8
0
 10
248.663
 11
248.764
 20
71.111
 21
70.943
  0
LINE
  8
0
 10
248.764
 11
248.848
 20
70.943
 21
70.765
  0
LINE
  8
0
 10
248.848
 11
248.914
 20
70.765
 21
70.581
  0
LINE
  8
0
 10
248.914
 11
248.962
 20
70.581
 21
70.39
  0
LINE
  8
0
 10
248.962
 11
248.99
 20
70.39
 21
70.196
  0
LINE
  8
0
 10
248.99
 11
249
 20
70.196
 21
70
  0
LINE
  8
0
 10
249
 11
248.99
 20
70
 21
69.804
  0
LINE
  8
0
 10
248.99
 11
248.962
 20
69.804
 21
69.61
  0
LINE
  8
0
 10
248.962
 11
248.914
 20
69.61
 21
69.419
  0
LINE
  8
0
 10
248.914
 11
248.848
 20
69.419
 21
69.235
  0
LINE
  8
0
 10
248.848
 11
248.764
 20
69.235
 21
69.057
  0
LINE
  8
0
 10
248.764
 11
248.663
 20
69.057
 21
68.889
  0
LINE
  8
0
 10
248.663
 11
248.546
 20
68.889
 21
68.731
  0
LINE
  8
0
 10
248.546
 11
248.414
 20
68.731
 21
68.586
  0
LINE
  8
0
 10
248.414
 11
248.269
 20
68.586
 21
68.454
  0
LINE
  8
0
 10
248.269
 11
248.111
 20
68.454
 21
68.337
  0
LINE
  8
0
 10
248.111
 11
247.943
 20
68.337
 21
68.236
  0
LINE
  8
0
 10
247.943
 11
247.765
 20
68.236
 21
68.152
  0
LINE
  8
0
 10
247.765
 11
247.581
 20
68.152
 21
68.086
  0
LINE
  8
0
 10
247.581
 11
247.39
 20
68.086
 21
68.038
  0
LINE
  8
0
 10
247.39
 11
247.196
 20
68.038
 21
68.01
  0
LINE
  8
0
 10
247.196
 11
247
 20
68.01
 21
68
  0
LINE
  8
0
 10
247
 11
246.804
 20
68
 21
68.01
  0
LINE
  8
0
 10
246.804
 11
246.61
 20
68.01
 21
68.038
  0
LINE
  8
0
 10
246.61
 11
246.419
 20
68.038
 21
68.086
  0
LINE
  8
0
 10
246.419
 11
246.235
 20
68.086
 21
68.152
  0
LINE
  8
0
 10
246.235
 11
246.057
 20
68.152
 21
68.236
  0
LINE
  8
0
 10
246.057
 11
245.889
 20
68.236
 21
68.337
  0
LINE
  8
0
 10
245.889
 11
245.731
 20
68.337
 21
68.454
  0
LINE
  8
0
 10
245.731
 11
245.586
 20
68.454
 21
68.586
  0
LINE
  8
0
 10
245.586
 11
245.454
 20
68.586
 21
68.731
  0
LINE
  8
0
 10
245.454
 11
245.337
 20
68.731
 21
68.889
  0
LINE
  8
0
 10
245.337
 11
245.236
 20
68.889
 21
69.057
  0
LINE
  8
0
 10
245.236
 11
245.152
 20
69.057
 21
69.235
  0
LINE
  8
0
 10
245.152
 11
245.086
 20
69.235
 21
69.419
  0
LINE
  8
0
 10
245.086
 11
245.038
 20
69.419
 21
69.61
  0
LINE
  8
0
 10
245.038
 11
245.01
 20
69.61
 21
69.804
  0
LINE
  8
0
 10
245.01
 11
245
 20
69.804
 21
70
  0
LINE
  8
0
 10
247
 11
247
 20
20
 21
40
  0
LINE
  8
0
 10
247
 11
250
 20
40
 21
40
  0
LINE
  8
0
 10
250
 11
250
 20
40
 21
20
  0
LINE
  8
0
 10
250
 11
247
 20
20
 21
20
  0
ENDSEC
  0
SECTION
  2
OBJECTS
  0
DICTIONARY
  0
ENDSEC
  0
EOF
